#N canvas 200 200 1000 400 16;
#X text 52 164 | sel(i) > bang();
#X text 52 187 | END;
#X text 52 141 | FOR i in range 5:;
#X obj 369 150 sel 1;
#X obj 428 240 sel 2;
#X obj 512 150 sel 3;
#X obj 577 240 sel 4;
#X obj 663 150 sel 5;
#X obj 428 280 bng 24 250 50 0 empty empty empty 0 -12 0 16 #fcfcfc #000000 #000000;
#X obj 369 192 bng 24 250 50 0 empty empty empty 0 -12 0 16 #fcfcfc #000000 #000000;
#X obj 512 192 bng 24 250 50 0 empty empty empty 0 -12 0 16 #fcfcfc #000000 #000000;
#X obj 577 280 bng 24 250 50 0 empty empty empty 0 -12 0 16 #fcfcfc #000000 #000000;
#X obj 663 192 bng 24 250 50 0 empty empty empty 0 -12 0 16 #fcfcfc #000000 #000000;
#X text 62 21 --------------------------- DESIGN --------------------------- Il DSL proposto presenta elementi in comune con linguaggi già esistenti \, secondo il pattern del piggybacking., f 62;
#X connect 3 0 9 0;
#X connect 4 0 8 0;
#X connect 5 0 10 0;
#X connect 6 0 11 0;
#X connect 7 0 12 0;
