#N canvas 200 20 1006 680 16;
#X text 79 55 import pdawlib;
#X text 58 21 ------------------------- codice sorgente -------------------------, f 70;
#X text 77 85 dsp_on();
#X text 77 105 dsp_off();
#X text 77 151 loadbang>msg(160)>@bpm_out();
#X text 77 128 toggle() > @onoff();
#X text 76 190 fourbars = @genpatternof(4);
#X text 76 213 crashclock = @clockmul(1 \, 'none');
#X text 76 236 bassclock = @clockdiv(8);
#X text 76 259 drumclock = @clockdiv(16);
#X text 76 282 ambientclock = @clockmul(2 \, '2_mes_time');
#X text 79 320 bass_seq = @genbass([100 \, 90 \, 85 \, 75 \, 90 \, 85 \, 75 \, 90] \, 40 \, 'phrygian' \, 'bass'), f 84;
#X text 78 343 @bind(bassclock \, bass_seq \, 8);
#X text 76 378 drum_samples = ['./samples/HouseGen-Snare30.wav' \, './samples/Collider-Fifth-CHat-02.wav' \, './samples/HouseGen-Kick-25.wav' \, './samples/Attack-Hat-12.wav' \, './samples/05.wav'], f 91;
#X text 76 423 drum_seq = @gendrums(drum_samples \, 16 \, 'drums');
#X text 76 449 @bind(drumclock \, drum_seq \, 16);
#X text 76 483 ambient_pad = @ambient(64 \, 'phrygian' \, 'pad');
#X text 76 507 @bind(ambientclock \, ambient_pad \, 1);
#X text 76 551 crash = @sampleread('./samples/hihat_snake.wav' \, 'crash');
#X text 76 576 @bind(crashclock \, crash \, 1);
#X text 74 615 @glitchmix(['drums' \, 'crash'] \, ['bass' \, 'pad'] \, './samples/MA-Fizz-Cymbal.wav'), f 83;
