#N canvas 351 55 657 610 16;
#X floatatom 214 216 5 0 0 0 - - - 0;
#X obj 214 264 t b f;
#X obj 214 303 /;
#X floatatom 138 390 5 0 0 0 - - - 0;
#X obj 106 431 metro;
#X obj 106 469 bng 23 250 50 0 empty empty empty 0 -10 0 12 #fcfcfc #000000 #000000;
#X obj 106 389 tgl 23 0 empty empty empty 0 -10 0 12 #fcfcfc #000000 #000000 0 1;
#X obj 214 147 loadbang;
#X obj 339 147 loadbang;
#X msg 339 205 60000;
#X msg 214 183 60;
#X text 60 42 Problemi di natura logica:;
#X floatatom 247 457 5 0 0 0 - - - 0;
#X obj 215 498 metro;
#X obj 215 536 bng 23 250 50 0 empty empty empty 0 -10 0 12 #fcfcfc #000000 #000000;
#X obj 215 456 tgl 23 0 empty empty empty 0 -10 0 12 #fcfcfc #000000 #000000 0 1;
#X floatatom 214 391 5 0 0 0 - - - 0;
#X obj 215 420 / 2;
#X floatatom 362 459 5 0 0 0 - - - 0;
#X obj 330 500 metro;
#X obj 330 538 bng 23 250 50 0 empty empty empty 0 -10 0 12 #fcfcfc #000000 #000000;
#X obj 330 458 tgl 23 0 empty empty empty 0 -10 0 12 #fcfcfc #000000 #000000 0 1;
#X floatatom 329 393 5 0 0 0 - - - 0;
#X obj 330 422 / 4;
#X floatatom 486 460 5 0 0 0 - - - 0;
#X obj 454 501 metro;
#X obj 454 539 bng 23 250 50 0 empty empty empty 0 -10 0 12 #fcfcfc #000000 #000000;
#X obj 454 459 tgl 23 0 empty empty empty 0 -10 0 12 #fcfcfc #000000 #000000 0 1;
#X floatatom 453 394 5 0 0 0 - - - 0;
#X obj 454 423 / 8;
#X text 60 65 - avere conoscenza in materia di signal processing.;
#X connect 0 0 1 0;
#X connect 1 0 2 0;
#X connect 1 1 2 1;
#X connect 2 0 3 0;
#X connect 2 0 16 0;
#X connect 2 0 22 0;
#X connect 2 0 28 0;
#X connect 3 0 4 1;
#X connect 4 0 5 0;
#X connect 6 0 4 0;
#X connect 7 0 10 0;
#X connect 8 0 9 0;
#X connect 9 0 2 0;
#X connect 10 0 0 0;
#X connect 12 0 13 1;
#X connect 13 0 14 0;
#X connect 15 0 13 0;
#X connect 16 0 17 0;
#X connect 17 0 12 0;
#X connect 18 0 19 1;
#X connect 19 0 20 0;
#X connect 21 0 19 0;
#X connect 22 0 23 0;
#X connect 23 0 18 0;
#X connect 24 0 25 1;
#X connect 25 0 26 0;
#X connect 27 0 25 0;
#X connect 28 0 29 0;
#X connect 29 0 24 0;
