#N canvas 100 200 1200 400 16;
#X obj 90 18 tgl 24 0 empty empty empty 0 -10 0 12 #fcfcfc #000000 #000000 0 1;
#N canvas 130 130 450 300 onoff0 0;
#X obj 90 18 inlet;
#X obj 90 90 s ON_2;
#X connect 0 0 1 0;
#X restore 90 90 pd onoff0;
#N canvas 26 26 450 518 bpm0 0;
#X obj 90 306 /;
#X obj 90 234 t b f;
#X obj 90 18 loadbang;
#X floatatom 90 162 5 0 0 0 - - - 0;
#X obj 162 162 loadbang;
#X msg 162 234 60000;
#X floatatom 90 378 5 0 0 0 - - - 0;
#X obj 90 450 s 4th_time_2;
#X msg 90 90 60;
#X connect 0 0 6 0;
#X connect 1 0 0 0;
#X connect 1 1 0 1;
#X connect 2 0 8 0;
#X connect 3 0 1 0;
#X connect 4 0 5 0;
#X connect 5 0 0 0;
#X connect 6 0 7 0;
#X connect 8 0 3 0;
#X restore 288 90 pd bpm0;
#N canvas 150 168 1079 370 drums0 0;
#N canvas 78 78 450 300 read0 0;
#X obj 27 18 inlet;
#X obj 27 162 readsf~;
#X obj 27 234 outlet~;
#X msg 27 90 open ./samples/kick.wav \, 1;
#X connect 0 0 3 0;
#X connect 1 0 2 0;
#X connect 3 0 1 0;
#X restore 1143 234 pd read0;
#X obj 27 18 inlet;
#X obj 27 90 bng 24 250 50 0 empty empty empty 0 -10 0 12 #fcfcfc #000000 #000000;
#X obj 99 162 spigot;
#X obj 99 90 tgl 24 0 empty empty empty 0 -10 0 12 #fcfcfc #000000 #000000 0 1;
#X obj 171 18 inlet;
#X obj 171 90 bng 24 250 50 0 empty empty empty 0 -10 0 12 #fcfcfc #000000 #000000;
#X obj 243 162 spigot;
#X obj 243 90 tgl 24 0 empty empty empty 0 -10 0 12 #fcfcfc #000000 #000000 0 1;
#X obj 315 18 inlet;
#X obj 315 90 bng 24 250 50 0 empty empty empty 0 -10 0 12 #fcfcfc #000000 #000000;
#X obj 387 162 spigot;
#X obj 387 90 tgl 24 0 empty empty empty 0 -10 0 12 #fcfcfc #000000 #000000 0 1;
#X obj 459 18 inlet;
#X obj 459 90 bng 24 250 50 0 empty empty empty 0 -10 0 12 #fcfcfc #000000 #000000;
#X obj 531 162 spigot;
#X obj 531 18 loadbang;
#X obj 531 90 tgl 24 0 empty empty empty 0 -10 0 12 #fcfcfc #000000 #000000 0 1;
#X obj 622 18 inlet;
#X obj 622 90 bng 24 250 50 0 empty empty empty 0 -10 0 12 #fcfcfc #000000 #000000;
#X obj 675 162 spigot;
#X obj 684 90 tgl 24 0 empty empty empty 0 -10 0 12 #fcfcfc #000000 #000000 0 1;
#X obj 747 18 inlet;
#X obj 747 90 bng 24 250 50 0 empty empty empty 0 -10 0 12 #fcfcfc #000000 #000000;
#X obj 819 162 spigot;
#X obj 819 90 tgl 24 0 empty empty empty 0 -10 0 12 #fcfcfc #000000 #000000 0 1;
#X obj 891 18 inlet;
#X obj 891 90 bng 24 250 50 0 empty empty empty 0 -10 0 12 #fcfcfc #000000 #000000;
#X obj 963 162 spigot;
#X obj 963 90 tgl 24 0 empty empty empty 0 -10 0 12 #fcfcfc #000000 #000000 0 1;
#X obj 1035 18 inlet;
#X obj 1035 90 bng 24 250 50 0 empty empty empty 0 -10 0 12 #fcfcfc #000000 #000000;
#X obj 1107 162 spigot;
#X obj 1107 18 loadbang;
#X obj 1107 90 tgl 24 0 empty empty empty 0 -10 0 12 #fcfcfc #000000 #000000 0 1;
#X obj 1213 18 inlet;
#X obj 1213 90 bng 24 250 50 0 empty empty empty 0 -10 0 12 #fcfcfc #000000 #000000;
#X obj 1213 162 spigot;
#X obj 1285 90 tgl 24 0 empty empty empty 0 -10 0 12 #fcfcfc #000000 #000000 0 1;
#X obj 1323 18 inlet;
#X obj 1323 90 bng 24 250 50 0 empty empty empty 0 -10 0 12 #fcfcfc #000000 #000000;
#X obj 1323 162 spigot;
#X obj 1395 90 tgl 24 0 empty empty empty 0 -10 0 12 #fcfcfc #000000 #000000 0 1;
#X obj 1467 18 inlet;
#X obj 1467 90 bng 24 250 50 0 empty empty empty 0 -10 0 12 #fcfcfc #000000 #000000;
#X obj 1467 162 spigot;
#X obj 1539 90 tgl 24 0 empty empty empty 0 -10 0 12 #fcfcfc #000000 #000000 0 1;
#X obj 1594 18 inlet;
#X obj 1592 90 bng 24 250 50 0 empty empty empty 0 -10 0 12 #fcfcfc #000000 #000000;
#X obj 1586 162 spigot;
#X obj 1666 18 loadbang;
#X obj 1664 90 tgl 24 0 empty empty empty 0 -10 0 12 #fcfcfc #000000 #000000 0 1;
#X obj 1755 18 inlet;
#X obj 1755 90 bng 24 250 50 0 empty empty empty 0 -10 0 12 #fcfcfc #000000 #000000;
#X obj 1755 162 spigot;
#X obj 1827 90 tgl 24 0 empty empty empty 0 -10 0 12 #fcfcfc #000000 #000000 0 1;
#X obj 1899 18 inlet;
#X obj 1899 90 bng 24 250 50 0 empty empty empty 0 -10 0 12 #fcfcfc #000000 #000000;
#X obj 1899 162 spigot;
#X obj 1971 90 tgl 24 0 empty empty empty 0 -10 0 12 #fcfcfc #000000 #000000 0 1;
#X obj 2043 18 inlet;
#X obj 2043 90 bng 24 250 50 0 empty empty empty 0 -10 0 12 #fcfcfc #000000 #000000;
#X obj 2043 162 spigot;
#X obj 2115 90 tgl 24 0 empty empty empty 0 -10 0 12 #fcfcfc #000000 #000000 0 1;
#X obj 2187 18 inlet;
#X obj 2187 90 bng 24 250 50 0 empty empty empty 0 -10 0 12 #fcfcfc #000000 #000000;
#X obj 2187 162 spigot;
#X obj 2259 18 loadbang;
#X obj 2259 90 tgl 24 0 empty empty empty 0 -10 0 12 #fcfcfc #000000 #000000 0 1;
#X obj 1143 306 send~ kick_2;
#X connect 0 0 69 0;
#X connect 1 0 2 0;
#X connect 2 0 3 0;
#X connect 3 0 0 0;
#X connect 4 0 3 1;
#X connect 5 0 6 0;
#X connect 6 0 7 0;
#X connect 7 0 0 0;
#X connect 8 0 7 1;
#X connect 9 0 10 0;
#X connect 10 0 11 0;
#X connect 11 0 0 0;
#X connect 12 0 11 1;
#X connect 13 0 14 0;
#X connect 14 0 15 0;
#X connect 15 0 0 0;
#X connect 16 0 17 0;
#X connect 17 0 15 1;
#X connect 18 0 19 0;
#X connect 19 0 20 0;
#X connect 20 0 0 0;
#X connect 21 0 20 1;
#X connect 22 0 23 0;
#X connect 23 0 24 0;
#X connect 24 0 0 0;
#X connect 25 0 24 1;
#X connect 26 0 27 0;
#X connect 27 0 28 0;
#X connect 28 0 0 0;
#X connect 29 0 28 1;
#X connect 30 0 31 0;
#X connect 31 0 32 0;
#X connect 32 0 0 0;
#X connect 33 0 34 0;
#X connect 34 0 32 1;
#X connect 35 0 36 0;
#X connect 36 0 37 0;
#X connect 37 0 0 0;
#X connect 38 0 37 1;
#X connect 39 0 40 0;
#X connect 40 0 41 0;
#X connect 41 0 0 0;
#X connect 42 0 41 1;
#X connect 43 0 44 0;
#X connect 44 0 45 0;
#X connect 45 0 0 0;
#X connect 46 0 45 1;
#X connect 47 0 48 0;
#X connect 48 0 49 0;
#X connect 49 0 0 0;
#X connect 50 0 51 0;
#X connect 51 0 49 1;
#X connect 52 0 53 0;
#X connect 53 0 54 0;
#X connect 54 0 0 0;
#X connect 55 0 54 1;
#X connect 56 0 57 0;
#X connect 57 0 58 0;
#X connect 58 0 0 0;
#X connect 59 0 58 1;
#X connect 60 0 61 0;
#X connect 61 0 62 0;
#X connect 62 0 0 0;
#X connect 63 0 62 1;
#X connect 64 0 65 0;
#X connect 65 0 66 0;
#X connect 66 0 0 0;
#X connect 67 0 68 0;
#X connect 68 0 66 1;
#X restore 486 90 pd drums0;
#N canvas 121 158 1097 373 drums1 0;
#N canvas 156 156 450 300 read1 0;
#X obj 27 18 inlet;
#X obj 27 162 readsf~;
#X obj 27 234 outlet~;
#X msg 27 90 open ./samples/clhat.wav \, 1;
#X connect 0 0 3 0;
#X connect 1 0 2 0;
#X connect 3 0 1 0;
#X restore 1143 234 pd read1;
#X obj 27 18 inlet;
#X obj 27 90 bng 24 250 50 0 empty empty empty 0 -10 0 12 #fcfcfc #000000 #000000;
#X obj 99 162 spigot;
#X obj 99 90 tgl 24 0 empty empty empty 0 -10 0 12 #fcfcfc #000000 #000000 0 1;
#X obj 171 18 inlet;
#X obj 171 90 bng 24 250 50 0 empty empty empty 0 -10 0 12 #fcfcfc #000000 #000000;
#X obj 243 162 spigot;
#X obj 243 90 tgl 24 0 empty empty empty 0 -10 0 12 #fcfcfc #000000 #000000 0 1;
#X obj 315 18 inlet;
#X obj 315 90 bng 24 250 50 0 empty empty empty 0 -10 0 12 #fcfcfc #000000 #000000;
#X obj 387 162 spigot;
#X obj 387 90 tgl 24 0 empty empty empty 0 -10 0 12 #fcfcfc #000000 #000000 0 1;
#X obj 459 18 inlet;
#X obj 459 90 bng 24 250 50 0 empty empty empty 0 -10 0 12 #fcfcfc #000000 #000000;
#X obj 531 162 spigot;
#X obj 531 90 tgl 24 0 empty empty empty 0 -10 0 12 #fcfcfc #000000 #000000 0 1;
#X obj 589 18 inlet;
#X obj 589 90 bng 24 250 50 0 empty empty empty 0 -10 0 12 #fcfcfc #000000 #000000;
#X obj 675 162 spigot;
#X obj 652 18 loadbang;
#X obj 652 90 tgl 24 0 empty empty empty 0 -10 0 12 #fcfcfc #000000 #000000 0 1;
#X obj 747 18 inlet;
#X obj 747 90 bng 24 250 50 0 empty empty empty 0 -10 0 12 #fcfcfc #000000 #000000;
#X obj 819 162 spigot;
#X obj 804 18 loadbang;
#X obj 804 90 tgl 24 0 empty empty empty 0 -10 0 12 #fcfcfc #000000 #000000 0 1;
#X obj 891 18 inlet;
#X obj 891 90 bng 24 250 50 0 empty empty empty 0 -10 0 12 #fcfcfc #000000 #000000;
#X obj 963 162 spigot;
#X obj 963 18 loadbang;
#X obj 963 90 tgl 24 0 empty empty empty 0 -10 0 12 #fcfcfc #000000 #000000 0 1;
#X obj 1056 18 inlet;
#X obj 1056 90 bng 24 250 50 0 empty empty empty 0 -10 0 12 #fcfcfc #000000 #000000;
#X obj 1107 162 spigot;
#X obj 1122 18 loadbang;
#X obj 1122 90 tgl 24 0 empty empty empty 0 -10 0 12 #fcfcfc #000000 #000000 0 1;
#X obj 1211 18 inlet;
#X obj 1211 90 bng 24 250 50 0 empty empty empty 0 -10 0 12 #fcfcfc #000000 #000000;
#X obj 1211 162 spigot;
#X obj 1283 90 tgl 24 0 empty empty empty 0 -10 0 12 #fcfcfc #000000 #000000 0 1;
#X obj 1323 18 inlet;
#X obj 1323 90 bng 24 250 50 0 empty empty empty 0 -10 0 12 #fcfcfc #000000 #000000;
#X obj 1323 162 spigot;
#X obj 1395 90 tgl 24 0 empty empty empty 0 -10 0 12 #fcfcfc #000000 #000000 0 1;
#X obj 1467 18 inlet;
#X obj 1467 90 bng 24 250 50 0 empty empty empty 0 -10 0 12 #fcfcfc #000000 #000000;
#X obj 1467 162 spigot;
#X obj 1539 90 tgl 24 0 empty empty empty 0 -10 0 12 #fcfcfc #000000 #000000 0 1;
#X obj 1611 18 inlet;
#X obj 1611 90 bng 24 250 50 0 empty empty empty 0 -10 0 12 #fcfcfc #000000 #000000;
#X obj 1611 162 spigot;
#X obj 1683 90 tgl 24 0 empty empty empty 0 -10 0 12 #fcfcfc #000000 #000000 0 1;
#X obj 1755 18 inlet;
#X obj 1755 90 bng 24 250 50 0 empty empty empty 0 -10 0 12 #fcfcfc #000000 #000000;
#X obj 1755 162 spigot;
#X obj 1827 18 loadbang;
#X obj 1827 90 tgl 24 0 empty empty empty 0 -10 0 12 #fcfcfc #000000 #000000 0 1;
#X obj 1918 18 inlet;
#X obj 1918 90 bng 24 250 50 0 empty empty empty 0 -10 0 12 #fcfcfc #000000 #000000;
#X obj 1918 162 spigot;
#X obj 1990 18 loadbang;
#X obj 1990 90 tgl 24 0 empty empty empty 0 -10 0 12 #fcfcfc #000000 #000000 0 1;
#X obj 2083 18 inlet;
#X obj 2083 90 bng 24 250 50 0 empty empty empty 0 -10 0 12 #fcfcfc #000000 #000000;
#X obj 2083 162 spigot;
#X obj 2155 18 loadbang;
#X obj 2155 90 tgl 24 0 empty empty empty 0 -10 0 12 #fcfcfc #000000 #000000 0 1;
#X obj 2248 18 inlet;
#X obj 2248 90 bng 24 250 50 0 empty empty empty 0 -10 0 12 #fcfcfc #000000 #000000;
#X obj 2248 162 spigot;
#X obj 2320 18 loadbang;
#X obj 2320 90 tgl 24 0 empty empty empty 0 -10 0 12 #fcfcfc #000000 #000000 0 1;
#X obj 1143 306 send~ hat_2;
#X connect 0 0 73 0;
#X connect 1 0 2 0;
#X connect 2 0 3 0;
#X connect 3 0 0 0;
#X connect 4 0 3 1;
#X connect 5 0 6 0;
#X connect 6 0 7 0;
#X connect 7 0 0 0;
#X connect 8 0 7 1;
#X connect 9 0 10 0;
#X connect 10 0 11 0;
#X connect 11 0 0 0;
#X connect 12 0 11 1;
#X connect 13 0 14 0;
#X connect 14 0 15 0;
#X connect 15 0 0 0;
#X connect 16 0 15 1;
#X connect 17 0 18 0;
#X connect 18 0 19 0;
#X connect 19 0 0 0;
#X connect 20 0 21 0;
#X connect 21 0 19 1;
#X connect 22 0 23 0;
#X connect 23 0 24 0;
#X connect 24 0 0 0;
#X connect 25 0 26 0;
#X connect 26 0 24 1;
#X connect 27 0 28 0;
#X connect 28 0 29 0;
#X connect 29 0 0 0;
#X connect 30 0 31 0;
#X connect 31 0 29 1;
#X connect 32 0 33 0;
#X connect 33 0 34 0;
#X connect 34 0 0 0;
#X connect 35 0 36 0;
#X connect 36 0 34 1;
#X connect 37 0 38 0;
#X connect 38 0 39 0;
#X connect 39 0 0 0;
#X connect 40 0 39 1;
#X connect 41 0 42 0;
#X connect 42 0 43 0;
#X connect 43 0 0 0;
#X connect 44 0 43 1;
#X connect 45 0 46 0;
#X connect 46 0 47 0;
#X connect 47 0 0 0;
#X connect 48 0 47 1;
#X connect 49 0 50 0;
#X connect 50 0 51 0;
#X connect 51 0 0 0;
#X connect 52 0 51 1;
#X connect 53 0 54 0;
#X connect 54 0 55 0;
#X connect 55 0 0 0;
#X connect 56 0 57 0;
#X connect 57 0 55 1;
#X connect 58 0 59 0;
#X connect 59 0 60 0;
#X connect 60 0 0 0;
#X connect 61 0 62 0;
#X connect 62 0 60 1;
#X connect 63 0 64 0;
#X connect 64 0 65 0;
#X connect 65 0 0 0;
#X connect 66 0 67 0;
#X connect 67 0 65 1;
#X connect 68 0 69 0;
#X connect 69 0 70 0;
#X connect 70 0 0 0;
#X connect 71 0 72 0;
#X connect 72 0 70 1;
#X restore 684 90 pd drums1;
#N canvas 285 21 664 634 clockdiv0 0;
#X obj 531 234 metro;
#X obj 584 90 / 4;
#X floatatom 580 162 5 0 0 0 - - - 0;
#X obj 395 90 tgl 24 0 empty empty empty 0 -10 0 12 #fcfcfc #000000 #000000 0 1;
#X obj 395 162 sel 0;
#X obj 467 162 loadbang;
#X obj 459 234 bng 24 250 50 0 empty empty empty 0 -10 0 12 #fcfcfc #000000 #000000;
#X msg 459 306 -1;
#X obj 567 378 int 1;
#X obj 531 306 bng 24 250 50 0 empty empty empty 0 -10 0 12 #fcfcfc #000000 #000000;
#X floatatom 567 450 5 0 0 0 - - - 0;
#X obj 567 522 % 16;
#X obj 567 594 + 1;
#X floatatom 567 666 5 0 0 0 - - - 0;
#X obj 603 306 + 1;
#X obj 567 738 sel 1 2 3 4 5 6 7 8 9 10 11 12 13 14 15 16;
#X obj 27 810 bng 24 250 50 0 empty empty empty 0 -10 0 12 #fcfcfc #000000 #000000;
#X obj 27 882 outlet;
#X obj 99 810 bng 24 250 50 0 empty empty empty 0 -10 0 12 #fcfcfc #000000 #000000;
#X obj 99 882 outlet;
#X obj 171 810 bng 24 250 50 0 empty empty empty 0 -10 0 12 #fcfcfc #000000 #000000;
#X obj 171 882 outlet;
#X obj 243 810 bng 24 250 50 0 empty empty empty 0 -10 0 12 #fcfcfc #000000 #000000;
#X obj 243 882 outlet;
#X obj 315 810 bng 24 250 50 0 empty empty empty 0 -10 0 12 #fcfcfc #000000 #000000;
#X obj 315 882 outlet;
#X obj 387 810 bng 24 250 50 0 empty empty empty 0 -10 0 12 #fcfcfc #000000 #000000;
#X obj 387 882 outlet;
#X obj 459 810 bng 24 250 50 0 empty empty empty 0 -10 0 12 #fcfcfc #000000 #000000;
#X obj 459 882 outlet;
#X obj 531 810 bng 24 250 50 0 empty empty empty 0 -10 0 12 #fcfcfc #000000 #000000;
#X obj 531 882 outlet;
#X obj 603 810 bng 24 250 50 0 empty empty empty 0 -10 0 12 #fcfcfc #000000 #000000;
#X obj 603 882 outlet;
#X obj 675 810 bng 24 250 50 0 empty empty empty 0 -10 0 12 #fcfcfc #000000 #000000;
#X obj 675 882 outlet;
#X obj 747 810 bng 24 250 50 0 empty empty empty 0 -10 0 12 #fcfcfc #000000 #000000;
#X obj 747 882 outlet;
#X obj 819 810 bng 24 250 50 0 empty empty empty 0 -10 0 12 #fcfcfc #000000 #000000;
#X obj 819 882 outlet;
#X obj 891 810 bng 24 250 50 0 empty empty empty 0 -10 0 12 #fcfcfc #000000 #000000;
#X obj 891 882 outlet;
#X obj 963 810 bng 24 250 50 0 empty empty empty 0 -10 0 12 #fcfcfc #000000 #000000;
#X obj 963 882 outlet;
#X obj 1035 810 bng 24 250 50 0 empty empty empty 0 -10 0 12 #fcfcfc #000000 #000000;
#X obj 1035 882 outlet;
#X obj 1107 810 bng 24 250 50 0 empty empty empty 0 -10 0 12 #fcfcfc #000000 #000000;
#X obj 1107 882 outlet;
#X obj 387 18 r ON_2;
#X obj 585 18 receive 4th_time_2;
#X connect 0 0 9 0;
#X connect 1 0 2 0;
#X connect 2 0 0 1;
#X connect 3 0 0 0;
#X connect 3 0 4 0;
#X connect 4 0 6 0;
#X connect 5 0 6 0;
#X connect 6 0 7 0;
#X connect 7 0 8 0;
#X connect 8 0 10 0;
#X connect 8 0 14 0;
#X connect 9 0 8 0;
#X connect 10 0 11 0;
#X connect 11 0 12 0;
#X connect 12 0 13 0;
#X connect 13 0 15 0;
#X connect 14 0 8 1;
#X connect 15 0 16 0;
#X connect 15 1 18 0;
#X connect 15 2 20 0;
#X connect 15 3 22 0;
#X connect 15 4 24 0;
#X connect 15 5 26 0;
#X connect 15 6 28 0;
#X connect 15 7 30 0;
#X connect 15 8 32 0;
#X connect 15 9 34 0;
#X connect 15 10 36 0;
#X connect 15 11 38 0;
#X connect 15 12 40 0;
#X connect 15 13 42 0;
#X connect 15 14 44 0;
#X connect 15 15 46 0;
#X connect 16 0 17 0;
#X connect 18 0 19 0;
#X connect 20 0 21 0;
#X connect 22 0 23 0;
#X connect 24 0 25 0;
#X connect 26 0 27 0;
#X connect 28 0 29 0;
#X connect 30 0 31 0;
#X connect 32 0 33 0;
#X connect 34 0 35 0;
#X connect 36 0 37 0;
#X connect 38 0 39 0;
#X connect 40 0 41 0;
#X connect 42 0 43 0;
#X connect 44 0 45 0;
#X connect 46 0 47 0;
#X connect 48 0 3 0;
#X connect 49 0 1 0;
#X restore 585 18 pd clockdiv0;
#N canvas 26 26 450 300 basicmixer0 0;
#X obj 63 162 *~ 1;
#X obj 64 87 *~ 0.4;
#X obj 231 86 *~ 0.4;
#X obj 64 15 receive~ kick_2;
#X obj 231 14 receive~ hat_2;
#X obj 62 232 dac~;
#X connect 0 0 5 0;
#X connect 0 0 5 1;
#X connect 1 0 0 0;
#X connect 2 0 0 0;
#X connect 3 0 1 0;
#X connect 4 0 2 0;
#X restore 882 90 pd basicmixer0;
#X msg 90 183 \; pd dsp 1;
#X msg 91 263 \; pd dsp 0;
#X connect 0 0 1 0;
#X connect 5 0 3 0;
#X connect 5 0 4 0;
#X connect 5 1 3 1;
#X connect 5 1 4 1;
#X connect 5 2 3 2;
#X connect 5 2 4 2;
#X connect 5 3 3 3;
#X connect 5 3 4 3;
#X connect 5 4 3 4;
#X connect 5 4 4 4;
#X connect 5 5 3 5;
#X connect 5 5 4 5;
#X connect 5 6 3 6;
#X connect 5 6 4 6;
#X connect 5 7 3 7;
#X connect 5 7 4 7;
#X connect 5 8 3 8;
#X connect 5 8 4 8;
#X connect 5 9 3 9;
#X connect 5 9 4 9;
#X connect 5 10 3 10;
#X connect 5 10 4 10;
#X connect 5 11 3 11;
#X connect 5 11 4 11;
#X connect 5 12 3 12;
#X connect 5 12 4 12;
#X connect 5 13 3 13;
#X connect 5 13 4 13;
#X connect 5 14 3 14;
#X connect 5 14 4 14;
#X connect 5 15 3 15;
#X connect 5 15 4 15;
