#N canvas 0 0 1366 725 16;
#X declare -lib Gem;
#X msg 51 71 \; pd dsp 1;
#X msg 50 137 \; pd dsp 0;
#X obj 50 437 tgl 24 0 empty empty empty 0 -10 0 12 #fcfcfc #000000 #000000 0 1;
#N canvas 104 104 450 300 onoff0 0;
#X obj 36 18 inlet;
#X obj 36 90 s ON;
#X connect 0 0 1 0;
#X restore 50 635 pd onoff0;
#X obj 211 437 loadbang;
#N canvas 52 52 450 432 bpm_out0 0;
#X obj 36 234 /;
#X obj 36 162 t b f;
#X obj 36 18 inlet;
#X floatatom 36 90 5 0 0 0 - - - 0;
#X obj 126 90 loadbang;
#X msg 126 162 60000;
#X floatatom 36 306 5 0 0 0 - - - 0;
#X obj 36 378 s 4th_time;
#X connect 0 0 6 0;
#X connect 1 0 0 0;
#X connect 1 1 0 1;
#X connect 2 0 3 0;
#X connect 3 0 1 0;
#X connect 4 0 5 0;
#X connect 5 0 0 0;
#X connect 6 0 7 0;
#X restore 211 635 pd bpm_out0;
#N canvas 400 20 400 725 genpatternof0 0;
#X obj 203 234 metro;
#X obj 254 90 receive 4th_time;
#X floatatom 254 162 5 0 0 0 - - - 0;
#X obj 82 18 r ON;
#X obj 82 90 tgl 19 0 empty empty empty 0 -10 0 12 #fcfcfc #000000 #000000 0 1;
#X obj 36 162 sel 0;
#X obj 126 162 loadbang;
#X obj 113 234 bng 19 250 50 0 empty empty empty 0 -10 0 12 #fcfcfc #000000 #000000;
#X msg 113 306 -1;
#X obj 248 378 int 1;
#X obj 203 306 bng 19 250 50 0 empty empty empty 0 -10 0 12 #fcfcfc #000000 #000000;
#X floatatom 248 450 5 0 0 0 - - - 0;
#X obj 293 306 + 1;
#X obj 248 522 % 16;
#X obj 248 594 + 1;
#X floatatom 248 666 5 0 0 0 - - - 0;
#X obj 248 738 sel 1;
#X obj 248 810 bng 19 250 50 0 empty empty empty 0 -10 0 12 #fcfcfc #000000 #000000;
#X obj 248 882 send 4bars_pattern;
#X connect 0 0 10 0;
#X connect 1 0 2 0;
#X connect 2 0 0 1;
#X connect 3 0 4 0;
#X connect 4 0 0 0;
#X connect 4 0 5 0;
#X connect 5 0 7 0;
#X connect 6 0 7 0;
#X connect 7 0 8 0;
#X connect 8 0 9 0;
#X connect 9 0 11 0;
#X connect 9 0 12 0;
#X connect 10 0 9 0;
#X connect 11 0 13 0;
#X connect 12 0 9 1;
#X connect 13 0 14 0;
#X connect 14 0 15 0;
#X connect 15 0 16 0;
#X connect 16 0 17 0;
#X connect 17 0 18 0;
#X restore 383 635 pd genpatternof0;
#N canvas 130 130 450 300 clockmul0 0;
#X obj 36 18 r ON;
#X obj 36 90 tgl 19 0 empty empty empty 0 -10 0 12 #fcfcfc #000000 #000000 0 1;
#X obj 81 162 metro;
#X obj 81 234 bng 19 250 50 0 empty empty empty 0 -10 0 12 #fcfcfc #000000 #000000;
#X obj 81 306 outlet;
#X obj 126 18 r 4th_time;
#X obj 126 90 * 4;
#X connect 0 0 1 0;
#X connect 1 0 2 0;
#X connect 2 0 3 0;
#X connect 3 0 4 0;
#X connect 5 0 6 0;
#X connect 6 0 2 1;
#X restore 376 24 pd clockmul0;
#N canvas 400 0 700 725 clockdiv0 0;
#X obj 306 234 metro;
#X obj 357 18 receive 4th_time;
#X obj 357 90 / 2;
#X floatatom 357 162 5 0 0 0 - - - 0;
#X obj 185 18 r ON;
#X obj 185 90 tgl 19 0 empty empty empty 0 -10 0 12 #fcfcfc #000000 #000000 0 1;
#X obj 139 162 sel 0;
#X obj 229 162 loadbang;
#X obj 216 234 bng 19 250 50 0 empty empty empty 0 -10 0 12 #fcfcfc #000000 #000000;
#X msg 216 306 -1;
#X obj 351 378 int 1;
#X obj 306 306 bng 19 250 50 0 empty empty empty 0 -10 0 12 #fcfcfc #000000 #000000;
#X floatatom 351 450 5 0 0 0 - - - 0;
#X obj 351 522 % 8;
#X obj 351 594 + 1;
#X floatatom 351 666 5 0 0 0 - - - 0;
#X obj 396 306 + 1;
#X obj 351 738 sel 1 2 3 4 5 6 7 8;
#X obj 36 810 bng 19 250 50 0 empty empty empty 0 -10 0 12 #fcfcfc #000000 #000000;
#X obj 36 882 outlet;
#X obj 126 810 bng 19 250 50 0 empty empty empty 0 -10 0 12 #fcfcfc #000000 #000000;
#X obj 126 882 outlet;
#X obj 216 810 bng 19 250 50 0 empty empty empty 0 -10 0 12 #fcfcfc #000000 #000000;
#X obj 216 882 outlet;
#X obj 306 810 bng 19 250 50 0 empty empty empty 0 -10 0 12 #fcfcfc #000000 #000000;
#X obj 306 882 outlet;
#X obj 396 810 bng 19 250 50 0 empty empty empty 0 -10 0 12 #fcfcfc #000000 #000000;
#X obj 396 882 outlet;
#X obj 486 810 bng 19 250 50 0 empty empty empty 0 -10 0 12 #fcfcfc #000000 #000000;
#X obj 486 882 outlet;
#X obj 576 810 bng 19 250 50 0 empty empty empty 0 -10 0 12 #fcfcfc #000000 #000000;
#X obj 576 882 outlet;
#X obj 666 810 bng 19 250 50 0 empty empty empty 0 -10 0 12 #fcfcfc #000000 #000000;
#X obj 666 882 outlet;
#X connect 0 0 11 0;
#X connect 1 0 2 0;
#X connect 2 0 3 0;
#X connect 3 0 0 1;
#X connect 4 0 5 0;
#X connect 5 0 0 0;
#X connect 5 0 6 0;
#X connect 6 0 8 0;
#X connect 7 0 8 0;
#X connect 8 0 9 0;
#X connect 9 0 10 0;
#X connect 10 0 12 0;
#X connect 10 0 16 0;
#X connect 11 0 10 0;
#X connect 12 0 13 0;
#X connect 13 0 14 0;
#X connect 14 0 15 0;
#X connect 15 0 17 0;
#X connect 16 0 10 1;
#X connect 17 0 18 0;
#X connect 17 1 20 0;
#X connect 17 2 22 0;
#X connect 17 3 24 0;
#X connect 17 4 26 0;
#X connect 17 5 28 0;
#X connect 17 6 30 0;
#X connect 17 7 32 0;
#X connect 18 0 19 0;
#X connect 20 0 21 0;
#X connect 22 0 23 0;
#X connect 24 0 25 0;
#X connect 26 0 27 0;
#X connect 28 0 29 0;
#X connect 30 0 31 0;
#X connect 32 0 33 0;
#X restore 575 25 pd clockdiv0;
#N canvas 52 52 1263 587 clockdiv1 0;
#X obj 666 234 metro;
#X obj 717 18 receive 4th_time;
#X obj 717 90 / 4;
#X floatatom 717 162 5 0 0 0 - - - 0;
#X obj 545 18 r ON;
#X obj 545 90 tgl 19 0 empty empty empty 0 -10 0 12 #fcfcfc #000000 #000000 0 1;
#X obj 499 162 sel 0;
#X obj 589 162 loadbang;
#X obj 576 234 bng 19 250 50 0 empty empty empty 0 -10 0 12 #fcfcfc #000000 #000000;
#X msg 576 306 -1;
#X obj 711 378 int 1;
#X obj 666 306 bng 19 250 50 0 empty empty empty 0 -10 0 12 #fcfcfc #000000 #000000;
#X floatatom 711 450 5 0 0 0 - - - 0;
#X obj 711 522 % 16;
#X obj 711 594 + 1;
#X floatatom 711 666 5 0 0 0 - - - 0;
#X obj 756 306 + 1;
#X obj 711 738 sel 1 2 3 4 5 6 7 8 9 10 11 12 13 14 15 16;
#X obj 36 810 bng 19 250 50 0 empty empty empty 0 -10 0 12 #fcfcfc #000000 #000000;
#X obj 36 882 outlet;
#X obj 126 810 bng 19 250 50 0 empty empty empty 0 -10 0 12 #fcfcfc #000000 #000000;
#X obj 126 882 outlet;
#X obj 216 810 bng 19 250 50 0 empty empty empty 0 -10 0 12 #fcfcfc #000000 #000000;
#X obj 216 882 outlet;
#X obj 306 810 bng 19 250 50 0 empty empty empty 0 -10 0 12 #fcfcfc #000000 #000000;
#X obj 306 882 outlet;
#X obj 396 810 bng 19 250 50 0 empty empty empty 0 -10 0 12 #fcfcfc #000000 #000000;
#X obj 396 882 outlet;
#X obj 486 810 bng 19 250 50 0 empty empty empty 0 -10 0 12 #fcfcfc #000000 #000000;
#X obj 486 882 outlet;
#X obj 576 810 bng 19 250 50 0 empty empty empty 0 -10 0 12 #fcfcfc #000000 #000000;
#X obj 576 882 outlet;
#X obj 666 810 bng 19 250 50 0 empty empty empty 0 -10 0 12 #fcfcfc #000000 #000000;
#X obj 666 882 outlet;
#X obj 756 810 bng 19 250 50 0 empty empty empty 0 -10 0 12 #fcfcfc #000000 #000000;
#X obj 756 882 outlet;
#X obj 846 810 bng 19 250 50 0 empty empty empty 0 -10 0 12 #fcfcfc #000000 #000000;
#X obj 846 882 outlet;
#X obj 936 810 bng 19 250 50 0 empty empty empty 0 -10 0 12 #fcfcfc #000000 #000000;
#X obj 936 882 outlet;
#X obj 1026 810 bng 19 250 50 0 empty empty empty 0 -10 0 12 #fcfcfc #000000 #000000;
#X obj 1026 882 outlet;
#X obj 1116 810 bng 19 250 50 0 empty empty empty 0 -10 0 12 #fcfcfc #000000 #000000;
#X obj 1116 882 outlet;
#X obj 1206 810 bng 19 250 50 0 empty empty empty 0 -10 0 12 #fcfcfc #000000 #000000;
#X obj 1206 882 outlet;
#X obj 1296 810 bng 19 250 50 0 empty empty empty 0 -10 0 12 #fcfcfc #000000 #000000;
#X obj 1296 882 outlet;
#X obj 1386 810 bng 19 250 50 0 empty empty empty 0 -10 0 12 #fcfcfc #000000 #000000;
#X obj 1386 882 outlet;
#X connect 0 0 11 0;
#X connect 1 0 2 0;
#X connect 2 0 3 0;
#X connect 3 0 0 1;
#X connect 4 0 5 0;
#X connect 5 0 0 0;
#X connect 5 0 6 0;
#X connect 6 0 8 0;
#X connect 7 0 8 0;
#X connect 8 0 9 0;
#X connect 9 0 10 0;
#X connect 10 0 12 0;
#X connect 10 0 16 0;
#X connect 11 0 10 0;
#X connect 12 0 13 0;
#X connect 13 0 14 0;
#X connect 14 0 15 0;
#X connect 15 0 17 0;
#X connect 16 0 10 1;
#X connect 17 0 18 0;
#X connect 17 1 20 0;
#X connect 17 2 22 0;
#X connect 17 3 24 0;
#X connect 17 4 26 0;
#X connect 17 5 28 0;
#X connect 17 6 30 0;
#X connect 17 7 32 0;
#X connect 17 8 34 0;
#X connect 17 9 36 0;
#X connect 17 10 38 0;
#X connect 17 11 40 0;
#X connect 17 12 42 0;
#X connect 17 13 44 0;
#X connect 17 14 46 0;
#X connect 17 15 48 0;
#X connect 18 0 19 0;
#X connect 20 0 21 0;
#X connect 22 0 23 0;
#X connect 24 0 25 0;
#X connect 26 0 27 0;
#X connect 28 0 29 0;
#X connect 30 0 31 0;
#X connect 32 0 33 0;
#X connect 34 0 35 0;
#X connect 36 0 37 0;
#X connect 38 0 39 0;
#X connect 40 0 41 0;
#X connect 42 0 43 0;
#X connect 44 0 45 0;
#X connect 46 0 47 0;
#X connect 48 0 49 0;
#X restore 760 25 pd clockdiv1;
#N canvas 78 78 721 428 clockmul1 0;
#X obj 299 26 r ON;
#X obj 299 98 tgl 19 0 empty empty empty 0 -10 0 12 #fcfcfc #000000 #000000 0 1;
#X obj 299 171 metro;
#X obj 299 242 bng 19 250 50 0 empty empty empty 0 -10 0 12 #fcfcfc #000000 #000000;
#X obj 299 314 outlet;
#X obj 90 18 r 4th_time;
#X obj 90 90 * 8;
#X obj 90 171 send 2_mes_time;
#X connect 0 0 1 0;
#X connect 1 0 2 0;
#X connect 2 0 3 0;
#X connect 3 0 4 0;
#X connect 5 0 6 0;
#X connect 6 0 2 1;
#X connect 6 0 7 0;
#X restore 927 24 pd clockmul1;
#N canvas 46 74 1206 575 genbass0 0;
#X floatatom 1470 378 5 0 0 0 - - - 0;
#N canvas 65 41 1219 626 ac_bass0 0;
#X obj 243 18 inlet;
#X floatatom 243 90 5 0 0 0 - - - 0;
#X obj 83 163 phasor~;
#X obj 20 235 send~ saw_bass;
#X obj 243 162 bng 19 250 50 0 empty empty empty 0 -10 0 12 #fcfcfc #000000 #000000;
#X msg 198 234 1 10;
#X obj 230 378 line;
#X floatatom 230 450 5 0 0 0 - - - 0;
#X obj 230 522 * 4000;
#X obj 230 594 + 500;
#X floatatom 230 666 5 0 0 0 - - - 0;
#X obj 230 738 s filter_freq;
#X obj 288 234 delay 10;
#X msg 262 306 0 250;
#X obj 839 522 *~;
#X obj 543 450 vcf~;
#X obj 352 306 loadbang;
#X msg 336 378 9;
#X obj 418 379 receive~ saw_bass;
#X obj 624 378 r filter_freq;
#X obj 839 450 vcf~;
#X obj 777 306 loadbang;
#X msg 777 378 25;
#X obj 839 378 receive~ saw_bass;
#X obj 1038 378 r filter_freq;
#X obj 1074 162 bng 19 250 50 0 empty empty empty 0 -10 0 12 #fcfcfc #000000 #000000;
#X msg 1074 234 1 10;
#X obj 1204 378 line;
#X floatatom 1065 450 5 0 0 0 - - - 0;
#X obj 839 594 outlet~;
#X obj 1204 234 delay 10;
#X msg 1204 306 0 250;
#X connect 0 0 1 0;
#X connect 1 0 2 0;
#X connect 1 0 4 0;
#X connect 1 0 25 0;
#X connect 2 0 3 0;
#X connect 4 0 5 0;
#X connect 4 0 12 0;
#X connect 5 0 6 0;
#X connect 6 0 7 0;
#X connect 7 0 8 0;
#X connect 8 0 9 0;
#X connect 9 0 10 0;
#X connect 10 0 11 0;
#X connect 12 0 13 0;
#X connect 13 0 6 0;
#X connect 14 0 29 0;
#X connect 15 0 14 0;
#X connect 16 0 17 0;
#X connect 17 0 15 2;
#X connect 18 0 15 0;
#X connect 19 0 15 1;
#X connect 20 0 14 0;
#X connect 21 0 22 0;
#X connect 22 0 20 2;
#X connect 23 0 20 0;
#X connect 24 0 20 1;
#X connect 25 0 26 0;
#X connect 25 0 30 0;
#X connect 26 0 27 0;
#X connect 27 0 28 0;
#X connect 28 0 14 1;
#X connect 30 0 31 0;
#X connect 31 0 27 0;
#X restore 1470 456 pd ac_bass0;
#X obj 1470 531 send~ bass;
#X obj 36 18 inlet;
#X obj 54 90 bng 19 250 50 0 empty empty empty 0 -10 0 12 #fcfcfc #000000 #000000;
#X obj 105 165 spigot;
#X obj 123 237 bng 19 250 50 0 empty empty empty 0 -10 0 12 #fcfcfc #000000 #000000;
#X floatatom 191 309 5 0 0 0 - - - 0;
#N canvas 0 50 450 300 attachprobability0 0;
#X obj 72 18 r 4bars_pattern;
#X obj 72 90 bng 19 250 50 0 empty empty empty 0 -10 0 12 #fcfcfc #000000 #000000;
#X obj 72 162 random 100;
#X floatatom 72 234 5 0 0 0 - - - 0;
#X obj 72 306 < 100;
#X obj 72 378 outlet;
#X connect 0 0 1 0;
#X connect 1 0 2 0;
#X connect 2 0 3 0;
#X connect 3 0 4 0;
#X connect 4 0 5 0;
#X restore 162 18 pd attachprobability0;
#X obj 162 90 tgl 19 0 empty empty empty 0 -10 0 12 #fcfcfc #000000 #000000 0 1;
#N canvas 0 50 450 300 scales0 0;
#X floatatom 306 234 5 0 0 0 - - - 0;
#X floatatom 306 450 5 0 0 0 - - - 0;
#X obj 306 18 inlet;
#X obj 306 90 bng 19 250 50 0 empty empty empty 0 -10 0 12 #fcfcfc #000000 #000000;
#X obj 306 162 random 7;
#X obj 36 306 sel 0;
#X msg 36 378 41;
#X obj 126 306 sel 1;
#X msg 126 378 43;
#X obj 216 306 sel 2;
#X msg 216 378 45;
#X obj 306 306 sel 3;
#X msg 306 378 47;
#X obj 396 306 sel 4;
#X msg 396 378 48;
#X obj 486 306 sel 5;
#X msg 486 378 50;
#X obj 576 306 sel 6;
#X msg 576 378 52;
#X obj 306 522 mtof;
#X obj 306 594 outlet;
#X connect 0 0 5 0;
#X connect 0 0 7 0;
#X connect 0 0 9 0;
#X connect 0 0 11 0;
#X connect 0 0 13 0;
#X connect 0 0 15 0;
#X connect 0 0 17 0;
#X connect 1 0 19 0;
#X connect 2 0 3 0;
#X connect 3 0 4 0;
#X connect 4 0 0 0;
#X connect 5 0 6 0;
#X connect 6 0 1 0;
#X connect 7 0 8 0;
#X connect 8 0 1 0;
#X connect 9 0 10 0;
#X connect 10 0 1 0;
#X connect 11 0 12 0;
#X connect 12 0 1 0;
#X connect 13 0 14 0;
#X connect 14 0 1 0;
#X connect 15 0 16 0;
#X connect 16 0 1 0;
#X connect 17 0 18 0;
#X connect 18 0 1 0;
#X connect 19 0 20 0;
#X restore 191 237 pd scales0;
#X obj 191 165 r 4bars_pattern;
#X obj 394 18 inlet;
#X obj 394 90 bng 19 250 50 0 empty empty empty 0 -10 0 12 #fcfcfc #000000 #000000;
#X obj 444 165 spigot;
#X obj 446 237 bng 19 250 50 0 empty empty empty 0 -10 0 12 #fcfcfc #000000 #000000;
#X floatatom 570 309 5 0 0 0 - - - 0;
#N canvas 0 50 450 300 attachprobability1 0;
#X obj 72 18 r 4bars_pattern;
#X obj 72 90 bng 19 250 50 0 empty empty empty 0 -10 0 12 #fcfcfc #000000 #000000;
#X obj 72 162 random 100;
#X floatatom 72 234 5 0 0 0 - - - 0;
#X obj 72 306 < 90;
#X obj 72 378 outlet;
#X connect 0 0 1 0;
#X connect 1 0 2 0;
#X connect 2 0 3 0;
#X connect 3 0 4 0;
#X connect 4 0 5 0;
#X restore 494 18 pd attachprobability1;
#X obj 494 90 tgl 19 0 empty empty empty 0 -10 0 12 #fcfcfc #000000 #000000 0 1;
#N canvas 0 50 450 300 scales1 0;
#X floatatom 306 234 5 0 0 0 - - - 0;
#X floatatom 306 450 5 0 0 0 - - - 0;
#X obj 306 18 inlet;
#X obj 306 90 bng 19 250 50 0 empty empty empty 0 -10 0 12 #fcfcfc #000000 #000000;
#X obj 306 162 random 7;
#X obj 36 306 sel 0;
#X msg 36 378 41;
#X obj 126 306 sel 1;
#X msg 126 378 43;
#X obj 216 306 sel 2;
#X msg 216 378 45;
#X obj 306 306 sel 3;
#X msg 306 378 47;
#X obj 396 306 sel 4;
#X msg 396 378 48;
#X obj 486 306 sel 5;
#X msg 486 378 50;
#X obj 576 306 sel 6;
#X msg 576 378 52;
#X obj 306 522 mtof;
#X obj 306 594 outlet;
#X connect 0 0 5 0;
#X connect 0 0 7 0;
#X connect 0 0 9 0;
#X connect 0 0 11 0;
#X connect 0 0 13 0;
#X connect 0 0 15 0;
#X connect 0 0 17 0;
#X connect 1 0 19 0;
#X connect 2 0 3 0;
#X connect 3 0 4 0;
#X connect 4 0 0 0;
#X connect 5 0 6 0;
#X connect 6 0 1 0;
#X connect 7 0 8 0;
#X connect 8 0 1 0;
#X connect 9 0 10 0;
#X connect 10 0 1 0;
#X connect 11 0 12 0;
#X connect 12 0 1 0;
#X connect 13 0 14 0;
#X connect 14 0 1 0;
#X connect 15 0 16 0;
#X connect 16 0 1 0;
#X connect 17 0 18 0;
#X connect 18 0 1 0;
#X connect 19 0 20 0;
#X restore 570 237 pd scales1;
#X obj 570 165 r 4bars_pattern;
#X obj 765 18 inlet;
#X obj 765 90 bng 19 250 50 0 empty empty empty 0 -10 0 12 #fcfcfc #000000 #000000;
#X obj 786 165 spigot;
#X obj 803 237 bng 19 250 50 0 empty empty empty 0 -10 0 12 #fcfcfc #000000 #000000;
#X floatatom 885 309 5 0 0 0 - - - 0;
#N canvas 0 50 450 300 attachprobability2 0;
#X obj 72 18 r 4bars_pattern;
#X obj 72 90 bng 19 250 50 0 empty empty empty 0 -10 0 12 #fcfcfc #000000 #000000;
#X obj 72 162 random 100;
#X floatatom 72 234 5 0 0 0 - - - 0;
#X obj 72 306 < 85;
#X obj 72 378 outlet;
#X connect 0 0 1 0;
#X connect 1 0 2 0;
#X connect 2 0 3 0;
#X connect 3 0 4 0;
#X connect 4 0 5 0;
#X restore 884 18 pd attachprobability2;
#X obj 884 90 tgl 19 0 empty empty empty 0 -10 0 12 #fcfcfc #000000 #000000 0 1;
#N canvas 0 50 450 300 scales2 0;
#X floatatom 306 234 5 0 0 0 - - - 0;
#X floatatom 306 450 5 0 0 0 - - - 0;
#X obj 306 18 inlet;
#X obj 306 90 bng 19 250 50 0 empty empty empty 0 -10 0 12 #fcfcfc #000000 #000000;
#X obj 306 162 random 7;
#X obj 36 306 sel 0;
#X msg 36 378 41;
#X obj 126 306 sel 1;
#X msg 126 378 43;
#X obj 216 306 sel 2;
#X msg 216 378 45;
#X obj 306 306 sel 3;
#X msg 306 378 47;
#X obj 396 306 sel 4;
#X msg 396 378 48;
#X obj 486 306 sel 5;
#X msg 486 378 50;
#X obj 576 306 sel 6;
#X msg 576 378 52;
#X obj 306 522 mtof;
#X obj 306 594 outlet;
#X connect 0 0 5 0;
#X connect 0 0 7 0;
#X connect 0 0 9 0;
#X connect 0 0 11 0;
#X connect 0 0 13 0;
#X connect 0 0 15 0;
#X connect 0 0 17 0;
#X connect 1 0 19 0;
#X connect 2 0 3 0;
#X connect 3 0 4 0;
#X connect 4 0 0 0;
#X connect 5 0 6 0;
#X connect 6 0 1 0;
#X connect 7 0 8 0;
#X connect 8 0 1 0;
#X connect 9 0 10 0;
#X connect 10 0 1 0;
#X connect 11 0 12 0;
#X connect 12 0 1 0;
#X connect 13 0 14 0;
#X connect 14 0 1 0;
#X connect 15 0 16 0;
#X connect 16 0 1 0;
#X connect 17 0 18 0;
#X connect 18 0 1 0;
#X connect 19 0 20 0;
#X restore 885 237 pd scales2;
#X obj 885 165 r 4bars_pattern;
#X obj 1107 18 inlet;
#X obj 1107 90 bng 19 250 50 0 empty empty empty 0 -10 0 12 #fcfcfc #000000 #000000;
#X obj 1152 165 spigot;
#X obj 1170 235 bng 19 250 50 0 empty empty empty 0 -10 0 12 #fcfcfc #000000 #000000;
#X floatatom 1224 309 5 0 0 0 - - - 0;
#N canvas 0 50 450 300 attachprobability3 0;
#X obj 72 18 r 4bars_pattern;
#X obj 72 90 bng 19 250 50 0 empty empty empty 0 -10 0 12 #fcfcfc #000000 #000000;
#X obj 72 162 random 100;
#X floatatom 72 234 5 0 0 0 - - - 0;
#X obj 72 306 < 75;
#X obj 72 378 outlet;
#X connect 0 0 1 0;
#X connect 1 0 2 0;
#X connect 2 0 3 0;
#X connect 3 0 4 0;
#X connect 4 0 5 0;
#X restore 1215 18 pd attachprobability3;
#X obj 1215 90 tgl 19 0 empty empty empty 0 -10 0 12 #fcfcfc #000000 #000000 0 1;
#N canvas 0 50 450 300 scales3 0;
#X floatatom 306 234 5 0 0 0 - - - 0;
#X floatatom 306 450 5 0 0 0 - - - 0;
#X obj 306 18 inlet;
#X obj 306 90 bng 19 250 50 0 empty empty empty 0 -10 0 12 #fcfcfc #000000 #000000;
#X obj 306 162 random 7;
#X obj 36 306 sel 0;
#X msg 36 378 41;
#X obj 126 306 sel 1;
#X msg 126 378 43;
#X obj 216 306 sel 2;
#X msg 216 378 45;
#X obj 306 306 sel 3;
#X msg 306 378 47;
#X obj 396 306 sel 4;
#X msg 396 378 48;
#X obj 486 306 sel 5;
#X msg 486 378 50;
#X obj 576 306 sel 6;
#X msg 576 378 52;
#X obj 306 522 mtof;
#X obj 306 594 outlet;
#X connect 0 0 5 0;
#X connect 0 0 7 0;
#X connect 0 0 9 0;
#X connect 0 0 11 0;
#X connect 0 0 13 0;
#X connect 0 0 15 0;
#X connect 0 0 17 0;
#X connect 1 0 19 0;
#X connect 2 0 3 0;
#X connect 3 0 4 0;
#X connect 4 0 0 0;
#X connect 5 0 6 0;
#X connect 6 0 1 0;
#X connect 7 0 8 0;
#X connect 8 0 1 0;
#X connect 9 0 10 0;
#X connect 10 0 1 0;
#X connect 11 0 12 0;
#X connect 12 0 1 0;
#X connect 13 0 14 0;
#X connect 14 0 1 0;
#X connect 15 0 16 0;
#X connect 16 0 1 0;
#X connect 17 0 18 0;
#X connect 18 0 1 0;
#X connect 19 0 20 0;
#X restore 1235 235 pd scales3;
#X obj 1235 165 r 4bars_pattern;
#X obj 1436 18 inlet;
#X obj 1436 89 bng 19 250 50 0 empty empty empty 0 -10 0 12 #fcfcfc #000000 #000000;
#X obj 1469 162 spigot;
#X obj 1469 235 bng 19 250 50 0 empty empty empty 0 -10 0 12 #fcfcfc #000000 #000000;
#X floatatom 1469 309 5 0 0 0 - - - 0;
#N canvas 0 50 450 300 attachprobability4 0;
#X obj 72 18 r 4bars_pattern;
#X obj 72 90 bng 19 250 50 0 empty empty empty 0 -10 0 12 #fcfcfc #000000 #000000;
#X obj 72 162 random 100;
#X floatatom 72 234 5 0 0 0 - - - 0;
#X obj 72 306 < 90;
#X obj 72 378 outlet;
#X connect 0 0 1 0;
#X connect 1 0 2 0;
#X connect 2 0 3 0;
#X connect 3 0 4 0;
#X connect 4 0 5 0;
#X restore 1534 18 pd attachprobability4;
#X obj 1534 90 tgl 19 0 empty empty empty 0 -10 0 12 #fcfcfc #000000 #000000 0 1;
#N canvas 0 50 450 300 scales4 0;
#X floatatom 306 234 5 0 0 0 - - - 0;
#X floatatom 306 450 5 0 0 0 - - - 0;
#X obj 306 18 inlet;
#X obj 306 90 bng 19 250 50 0 empty empty empty 0 -10 0 12 #fcfcfc #000000 #000000;
#X obj 306 162 random 7;
#X obj 36 306 sel 0;
#X msg 36 378 41;
#X obj 126 306 sel 1;
#X msg 126 378 43;
#X obj 216 306 sel 2;
#X msg 216 378 45;
#X obj 306 306 sel 3;
#X msg 306 378 47;
#X obj 396 306 sel 4;
#X msg 396 378 48;
#X obj 486 306 sel 5;
#X msg 486 378 50;
#X obj 576 306 sel 6;
#X msg 576 378 52;
#X obj 306 522 mtof;
#X obj 306 594 outlet;
#X connect 0 0 5 0;
#X connect 0 0 7 0;
#X connect 0 0 9 0;
#X connect 0 0 11 0;
#X connect 0 0 13 0;
#X connect 0 0 15 0;
#X connect 0 0 17 0;
#X connect 1 0 19 0;
#X connect 2 0 3 0;
#X connect 3 0 4 0;
#X connect 4 0 0 0;
#X connect 5 0 6 0;
#X connect 6 0 1 0;
#X connect 7 0 8 0;
#X connect 8 0 1 0;
#X connect 9 0 10 0;
#X connect 10 0 1 0;
#X connect 11 0 12 0;
#X connect 12 0 1 0;
#X connect 13 0 14 0;
#X connect 14 0 1 0;
#X connect 15 0 16 0;
#X connect 16 0 1 0;
#X connect 17 0 18 0;
#X connect 18 0 1 0;
#X connect 19 0 20 0;
#X restore 1567 235 pd scales4;
#X obj 1567 162 r 4bars_pattern;
#X obj 1767 18 inlet;
#X obj 1767 89 bng 19 250 50 0 empty empty empty 0 -10 0 12 #fcfcfc #000000 #000000;
#X obj 1767 164 spigot;
#X obj 1768 241 bng 19 250 50 0 empty empty empty 0 -10 0 12 #fcfcfc #000000 #000000;
#X floatatom 1768 303 5 0 0 0 - - - 0;
#N canvas 0 50 450 300 attachprobability5 0;
#X obj 72 18 r 4bars_pattern;
#X obj 72 90 bng 19 250 50 0 empty empty empty 0 -10 0 12 #fcfcfc #000000 #000000;
#X obj 72 162 random 100;
#X floatatom 72 234 5 0 0 0 - - - 0;
#X obj 72 306 < 85;
#X obj 72 378 outlet;
#X connect 0 0 1 0;
#X connect 1 0 2 0;
#X connect 2 0 3 0;
#X connect 3 0 4 0;
#X connect 4 0 5 0;
#X restore 1872 19 pd attachprobability5;
#X obj 1872 90 tgl 19 0 empty empty empty 0 -10 0 12 #fcfcfc #000000 #000000 0 1;
#N canvas 0 50 450 300 scales5 0;
#X floatatom 306 234 5 0 0 0 - - - 0;
#X floatatom 306 450 5 0 0 0 - - - 0;
#X obj 306 18 inlet;
#X obj 306 90 bng 19 250 50 0 empty empty empty 0 -10 0 12 #fcfcfc #000000 #000000;
#X obj 306 162 random 7;
#X obj 36 306 sel 0;
#X msg 36 378 41;
#X obj 126 306 sel 1;
#X msg 126 378 43;
#X obj 216 306 sel 2;
#X msg 216 378 45;
#X obj 306 306 sel 3;
#X msg 306 378 47;
#X obj 396 306 sel 4;
#X msg 396 378 48;
#X obj 486 306 sel 5;
#X msg 486 378 50;
#X obj 576 306 sel 6;
#X msg 576 378 52;
#X obj 306 522 mtof;
#X obj 306 594 outlet;
#X connect 0 0 5 0;
#X connect 0 0 7 0;
#X connect 0 0 9 0;
#X connect 0 0 11 0;
#X connect 0 0 13 0;
#X connect 0 0 15 0;
#X connect 0 0 17 0;
#X connect 1 0 19 0;
#X connect 2 0 3 0;
#X connect 3 0 4 0;
#X connect 4 0 0 0;
#X connect 5 0 6 0;
#X connect 6 0 1 0;
#X connect 7 0 8 0;
#X connect 8 0 1 0;
#X connect 9 0 10 0;
#X connect 10 0 1 0;
#X connect 11 0 12 0;
#X connect 12 0 1 0;
#X connect 13 0 14 0;
#X connect 14 0 1 0;
#X connect 15 0 16 0;
#X connect 16 0 1 0;
#X connect 17 0 18 0;
#X connect 18 0 1 0;
#X connect 19 0 20 0;
#X restore 1871 237 pd scales5;
#X obj 1871 167 r 4bars_pattern;
#X obj 2105 18 inlet;
#X obj 2124 95 bng 19 250 50 0 empty empty empty 0 -10 0 12 #fcfcfc #000000 #000000;
#X obj 2135 161 spigot;
#X obj 2135 233 bng 19 250 50 0 empty empty empty 0 -10 0 12 #fcfcfc #000000 #000000;
#X floatatom 2135 305 5 0 0 0 - - - 0;
#N canvas 0 50 450 300 attachprobability6 0;
#X obj 72 18 r 4bars_pattern;
#X obj 72 90 bng 19 250 50 0 empty empty empty 0 -10 0 12 #fcfcfc #000000 #000000;
#X obj 72 162 random 100;
#X floatatom 72 234 5 0 0 0 - - - 0;
#X obj 72 306 < 75;
#X obj 72 378 outlet;
#X connect 0 0 1 0;
#X connect 1 0 2 0;
#X connect 2 0 3 0;
#X connect 3 0 4 0;
#X connect 4 0 5 0;
#X restore 2193 17 pd attachprobability6;
#X obj 2193 89 tgl 19 0 empty empty empty 0 -10 0 12 #fcfcfc #000000 #000000 0 1;
#N canvas 0 50 450 300 scales6 0;
#X floatatom 306 234 5 0 0 0 - - - 0;
#X floatatom 306 450 5 0 0 0 - - - 0;
#X obj 306 18 inlet;
#X obj 306 90 bng 19 250 50 0 empty empty empty 0 -10 0 12 #fcfcfc #000000 #000000;
#X obj 306 162 random 7;
#X obj 36 306 sel 0;
#X msg 36 378 41;
#X obj 126 306 sel 1;
#X msg 126 378 43;
#X obj 216 306 sel 2;
#X msg 216 378 45;
#X obj 306 306 sel 3;
#X msg 306 378 47;
#X obj 396 306 sel 4;
#X msg 396 378 48;
#X obj 486 306 sel 5;
#X msg 486 378 50;
#X obj 576 306 sel 6;
#X msg 576 378 52;
#X obj 306 522 mtof;
#X obj 306 594 outlet;
#X connect 0 0 5 0;
#X connect 0 0 7 0;
#X connect 0 0 9 0;
#X connect 0 0 11 0;
#X connect 0 0 13 0;
#X connect 0 0 15 0;
#X connect 0 0 17 0;
#X connect 1 0 19 0;
#X connect 2 0 3 0;
#X connect 3 0 4 0;
#X connect 4 0 0 0;
#X connect 5 0 6 0;
#X connect 6 0 1 0;
#X connect 7 0 8 0;
#X connect 8 0 1 0;
#X connect 9 0 10 0;
#X connect 10 0 1 0;
#X connect 11 0 12 0;
#X connect 12 0 1 0;
#X connect 13 0 14 0;
#X connect 14 0 1 0;
#X connect 15 0 16 0;
#X connect 16 0 1 0;
#X connect 17 0 18 0;
#X connect 18 0 1 0;
#X connect 19 0 20 0;
#X restore 2243 233 pd scales6;
#X obj 2261 161 r 4bars_pattern;
#X obj 2448 11 inlet;
#X obj 2448 83 bng 19 250 50 0 empty empty empty 0 -10 0 12 #fcfcfc #000000 #000000;
#X obj 2485 155 spigot;
#X obj 2485 227 bng 19 250 50 0 empty empty empty 0 -10 0 12 #fcfcfc #000000 #000000;
#X floatatom 2485 299 5 0 0 0 - - - 0;
#N canvas 0 50 450 300 attachprobability7 0;
#X obj 72 18 r 4bars_pattern;
#X obj 72 90 bng 19 250 50 0 empty empty empty 0 -10 0 12 #fcfcfc #000000 #000000;
#X obj 72 162 random 100;
#X floatatom 72 234 5 0 0 0 - - - 0;
#X obj 72 306 < 90;
#X obj 72 378 outlet;
#X connect 0 0 1 0;
#X connect 1 0 2 0;
#X connect 2 0 3 0;
#X connect 3 0 4 0;
#X connect 4 0 5 0;
#X restore 2561 11 pd attachprobability7;
#X obj 2561 83 tgl 19 0 empty empty empty 0 -10 0 12 #fcfcfc #000000 #000000 0 1;
#N canvas 0 50 450 300 scales7 0;
#X floatatom 306 234 5 0 0 0 - - - 0;
#X floatatom 306 450 5 0 0 0 - - - 0;
#X obj 306 18 inlet;
#X obj 306 90 bng 19 250 50 0 empty empty empty 0 -10 0 12 #fcfcfc #000000 #000000;
#X obj 306 162 random 7;
#X obj 36 306 sel 0;
#X msg 36 378 41;
#X obj 126 306 sel 1;
#X msg 126 378 43;
#X obj 216 306 sel 2;
#X msg 216 378 45;
#X obj 306 306 sel 3;
#X msg 306 378 47;
#X obj 396 306 sel 4;
#X msg 396 378 48;
#X obj 486 306 sel 5;
#X msg 486 378 50;
#X obj 576 306 sel 6;
#X msg 576 378 52;
#X obj 306 522 mtof;
#X obj 306 594 outlet;
#X connect 0 0 5 0;
#X connect 0 0 7 0;
#X connect 0 0 9 0;
#X connect 0 0 11 0;
#X connect 0 0 13 0;
#X connect 0 0 15 0;
#X connect 0 0 17 0;
#X connect 1 0 19 0;
#X connect 2 0 3 0;
#X connect 3 0 4 0;
#X connect 4 0 0 0;
#X connect 5 0 6 0;
#X connect 6 0 1 0;
#X connect 7 0 8 0;
#X connect 8 0 1 0;
#X connect 9 0 10 0;
#X connect 10 0 1 0;
#X connect 11 0 12 0;
#X connect 12 0 1 0;
#X connect 13 0 14 0;
#X connect 14 0 1 0;
#X connect 15 0 16 0;
#X connect 16 0 1 0;
#X connect 17 0 18 0;
#X connect 18 0 1 0;
#X connect 19 0 20 0;
#X restore 2593 227 pd scales7;
#X obj 2611 155 r 4bars_pattern;
#X connect 0 0 1 0;
#X connect 1 0 2 0;
#X connect 3 0 4 0;
#X connect 4 0 5 0;
#X connect 5 0 6 0;
#X connect 6 0 7 0;
#X connect 7 0 0 0;
#X connect 8 0 9 0;
#X connect 9 0 5 1;
#X connect 10 0 7 0;
#X connect 11 0 10 0;
#X connect 12 0 13 0;
#X connect 13 0 14 0;
#X connect 14 0 15 0;
#X connect 15 0 16 0;
#X connect 16 0 0 0;
#X connect 17 0 18 0;
#X connect 18 0 14 1;
#X connect 19 0 16 0;
#X connect 20 0 19 0;
#X connect 21 0 22 0;
#X connect 22 0 23 0;
#X connect 23 0 24 0;
#X connect 24 0 25 0;
#X connect 25 0 0 0;
#X connect 26 0 27 0;
#X connect 27 0 23 1;
#X connect 28 0 25 0;
#X connect 29 0 28 0;
#X connect 30 0 31 0;
#X connect 31 0 32 0;
#X connect 32 0 33 0;
#X connect 33 0 34 0;
#X connect 34 0 0 0;
#X connect 35 0 36 0;
#X connect 36 0 32 1;
#X connect 37 0 34 0;
#X connect 38 0 37 0;
#X connect 39 0 40 0;
#X connect 40 0 41 0;
#X connect 41 0 42 0;
#X connect 42 0 43 0;
#X connect 43 0 0 0;
#X connect 44 0 45 0;
#X connect 45 0 41 1;
#X connect 46 0 43 0;
#X connect 47 0 46 0;
#X connect 48 0 49 0;
#X connect 49 0 50 0;
#X connect 50 0 51 0;
#X connect 51 0 52 0;
#X connect 52 0 0 0;
#X connect 53 0 54 0;
#X connect 54 0 50 1;
#X connect 55 0 52 0;
#X connect 56 0 55 0;
#X connect 57 0 58 0;
#X connect 58 0 59 0;
#X connect 59 0 60 0;
#X connect 60 0 61 0;
#X connect 61 0 0 0;
#X connect 62 0 63 0;
#X connect 63 0 59 1;
#X connect 64 0 61 0;
#X connect 65 0 64 0;
#X connect 66 0 67 0;
#X connect 67 0 68 0;
#X connect 68 0 69 0;
#X connect 69 0 70 0;
#X connect 70 0 0 0;
#X connect 71 0 72 0;
#X connect 72 0 68 1;
#X connect 73 0 70 0;
#X connect 74 0 73 0;
#X restore 575 225 pd genbass0;
#N canvas 80 115 1158 542 gendrums0 0;
#X floatatom 1431 378 5 0 0 0 - - - 0;
#X obj 36 162 inlet;
#X obj 36 234 bng 19 250 50 0 empty empty empty 0 -10 0 12 #fcfcfc #000000 #000000;
#X msg 126 306 0;
#X obj 126 18 r 4bars_pattern;
#X obj 126 90 bng 19 250 50 0 empty empty empty 0 -10 0 12 #fcfcfc #000000 #000000;
#X obj 126 162 random 5;
#X msg 126 234 set \$1;
#X obj 216 162 inlet;
#X obj 216 234 bng 19 250 50 0 empty empty empty 0 -10 0 12 #fcfcfc #000000 #000000;
#X msg 306 306 4;
#X obj 306 18 r 4bars_pattern;
#X obj 306 90 bng 19 250 50 0 empty empty empty 0 -10 0 12 #fcfcfc #000000 #000000;
#X obj 306 162 random 5;
#X msg 306 234 set \$1;
#X obj 396 162 inlet;
#X obj 396 234 bng 19 250 50 0 empty empty empty 0 -10 0 12 #fcfcfc #000000 #000000;
#X msg 486 306 2;
#X obj 486 18 r 4bars_pattern;
#X obj 486 90 bng 19 250 50 0 empty empty empty 0 -10 0 12 #fcfcfc #000000 #000000;
#X obj 486 162 random 5;
#X msg 486 234 set \$1;
#X obj 576 162 inlet;
#X obj 576 234 bng 19 250 50 0 empty empty empty 0 -10 0 12 #fcfcfc #000000 #000000;
#X msg 666 306 1;
#X obj 666 18 r 4bars_pattern;
#X obj 666 90 bng 19 250 50 0 empty empty empty 0 -10 0 12 #fcfcfc #000000 #000000;
#X obj 666 162 random 5;
#X msg 666 234 set \$1;
#X obj 756 162 inlet;
#X obj 756 234 bng 19 250 50 0 empty empty empty 0 -10 0 12 #fcfcfc #000000 #000000;
#X msg 846 306 4;
#X obj 846 18 r 4bars_pattern;
#X obj 846 90 bng 19 250 50 0 empty empty empty 0 -10 0 12 #fcfcfc #000000 #000000;
#X obj 846 162 random 5;
#X msg 846 234 set \$1;
#X obj 936 162 inlet;
#X obj 936 234 bng 19 250 50 0 empty empty empty 0 -10 0 12 #fcfcfc #000000 #000000;
#X msg 1026 306 3;
#X obj 1026 18 r 4bars_pattern;
#X obj 1026 90 bng 19 250 50 0 empty empty empty 0 -10 0 12 #fcfcfc #000000 #000000;
#X obj 1026 162 random 5;
#X msg 1026 234 set \$1;
#X obj 1116 162 inlet;
#X obj 1116 234 bng 19 250 50 0 empty empty empty 0 -10 0 12 #fcfcfc #000000 #000000;
#X msg 1206 306 4;
#X obj 1206 18 r 4bars_pattern;
#X obj 1206 90 bng 19 250 50 0 empty empty empty 0 -10 0 12 #fcfcfc #000000 #000000;
#X obj 1206 162 random 5;
#X msg 1206 234 set \$1;
#X obj 1296 162 inlet;
#X obj 1296 234 bng 19 250 50 0 empty empty empty 0 -10 0 12 #fcfcfc #000000 #000000;
#X msg 1386 306 1;
#X obj 1386 18 r 4bars_pattern;
#X obj 1386 90 bng 19 250 50 0 empty empty empty 0 -10 0 12 #fcfcfc #000000 #000000;
#X obj 1386 162 random 5;
#X msg 1386 234 set \$1;
#X obj 1476 162 inlet;
#X obj 1476 234 bng 19 250 50 0 empty empty empty 0 -10 0 12 #fcfcfc #000000 #000000;
#X msg 1476 306 0;
#X obj 1566 18 r 4bars_pattern;
#X obj 1566 90 bng 19 250 50 0 empty empty empty 0 -10 0 12 #fcfcfc #000000 #000000;
#X obj 1566 162 random 5;
#X msg 1566 234 set \$1;
#X obj 1656 162 inlet;
#X obj 1656 234 bng 19 250 50 0 empty empty empty 0 -10 0 12 #fcfcfc #000000 #000000;
#X msg 1656 306 2;
#X obj 1746 18 r 4bars_pattern;
#X obj 1746 90 bng 19 250 50 0 empty empty empty 0 -10 0 12 #fcfcfc #000000 #000000;
#X obj 1746 162 random 5;
#X msg 1746 234 set \$1;
#X obj 1836 162 inlet;
#X obj 1836 234 bng 19 250 50 0 empty empty empty 0 -10 0 12 #fcfcfc #000000 #000000;
#X msg 1836 306 1;
#X obj 1926 18 r 4bars_pattern;
#X obj 1926 90 bng 19 250 50 0 empty empty empty 0 -10 0 12 #fcfcfc #000000 #000000;
#X obj 1926 162 random 5;
#X msg 1926 234 set \$1;
#X obj 2016 162 inlet;
#X obj 2016 234 bng 19 250 50 0 empty empty empty 0 -10 0 12 #fcfcfc #000000 #000000;
#X msg 2016 306 2;
#X obj 2106 18 r 4bars_pattern;
#X obj 2106 90 bng 19 250 50 0 empty empty empty 0 -10 0 12 #fcfcfc #000000 #000000;
#X obj 2106 162 random 5;
#X msg 2106 234 set \$1;
#X obj 2196 162 inlet;
#X obj 2196 234 bng 19 250 50 0 empty empty empty 0 -10 0 12 #fcfcfc #000000 #000000;
#X msg 2196 306 2;
#X obj 2286 18 r 4bars_pattern;
#X obj 2286 90 bng 19 250 50 0 empty empty empty 0 -10 0 12 #fcfcfc #000000 #000000;
#X obj 2286 162 random 5;
#X msg 2286 234 set \$1;
#X obj 2376 162 inlet;
#X obj 2376 234 bng 19 250 50 0 empty empty empty 0 -10 0 12 #fcfcfc #000000 #000000;
#X msg 2376 306 1;
#X obj 2466 18 r 4bars_pattern;
#X obj 2466 90 bng 19 250 50 0 empty empty empty 0 -10 0 12 #fcfcfc #000000 #000000;
#X obj 2466 162 random 5;
#X msg 2466 234 set \$1;
#X obj 2556 162 inlet;
#X obj 2556 234 bng 19 250 50 0 empty empty empty 0 -10 0 12 #fcfcfc #000000 #000000;
#X msg 2556 306 2;
#X obj 2646 18 r 4bars_pattern;
#X obj 2646 90 bng 19 250 50 0 empty empty empty 0 -10 0 12 #fcfcfc #000000 #000000;
#X obj 2646 162 random 5;
#X msg 2646 234 set \$1;
#X obj 2736 162 inlet;
#X obj 2736 234 bng 19 250 50 0 empty empty empty 0 -10 0 12 #fcfcfc #000000 #000000;
#X msg 2736 306 2;
#X obj 2826 18 r 4bars_pattern;
#X obj 2826 90 bng 19 250 50 0 empty empty empty 0 -10 0 12 #fcfcfc #000000 #000000;
#X obj 2826 162 random 5;
#X msg 2826 234 set \$1;
#N canvas 26 26 1366 725 readmore0 0;
#X obj 216 18 inlet;
#X floatatom 216 90 5 0 0 0 - - - 0;
#X obj 216 378 outlet~;
#X obj 36 162 sel 0;
#X obj 36 234 bng 19 250 50 0 empty empty empty 0 -10 0 12 #fcfcfc #000000 #000000;
#N canvas 130 130 450 300 read0 0;
#X obj 144 18 inlet;
#X msg 144 90 open ./samples/HouseGen-Snare30.wav \, 1;
#X obj 144 162 readsf~;
#X obj 144 234 outlet~;
#X connect 0 0 1 0;
#X connect 1 0 2 0;
#X connect 2 0 3 0;
#X restore 36 306 pd read0;
#X obj 126 162 sel 1;
#X obj 126 234 bng 19 250 50 0 empty empty empty 0 -10 0 12 #fcfcfc #000000 #000000;
#N canvas 104 104 450 300 read1 0;
#X obj 144 18 inlet;
#X msg 144 90 open ./samples/Collider-Fifth-CHat-02.wav \, 1;
#X obj 144 162 readsf~;
#X obj 144 234 outlet~;
#X connect 0 0 1 0;
#X connect 1 0 2 0;
#X connect 2 0 3 0;
#X restore 126 306 pd read1;
#X obj 216 162 sel 2;
#X obj 216 234 bng 19 250 50 0 empty empty empty 0 -10 0 12 #fcfcfc #000000 #000000;
#N canvas 78 78 450 300 read2 0;
#X obj 144 18 inlet;
#X obj 144 162 readsf~;
#X obj 144 234 outlet~;
#X msg 144 90 open ./samples/01.wav \, 1;
#X connect 0 0 3 0;
#X connect 1 0 2 0;
#X connect 3 0 1 0;
#X restore 216 306 pd read2;
#X obj 306 162 sel 3;
#X obj 306 234 bng 19 250 50 0 empty empty empty 0 -10 0 12 #fcfcfc #000000 #000000;
#N canvas 52 52 450 300 read3 0;
#X obj 144 18 inlet;
#X msg 144 90 open ./samples/Attack-Hat-12.wav \, 1;
#X obj 144 162 readsf~;
#X obj 144 234 outlet~;
#X connect 0 0 1 0;
#X connect 1 0 2 0;
#X connect 2 0 3 0;
#X restore 306 306 pd read3;
#X obj 396 162 sel 4;
#X obj 396 234 bng 19 250 50 0 empty empty empty 0 -10 0 12 #fcfcfc #000000 #000000;
#N canvas 156 156 450 300 read4 0;
#X obj 108 18 inlet;
#X obj 108 162 readsf~;
#X obj 108 234 outlet~;
#X msg 108 90 open ./samples/04.wav \, 1;
#X connect 0 0 3 0;
#X connect 1 0 2 0;
#X connect 3 0 1 0;
#X restore 396 306 pd read4;
#X obj 511 162 bng 19 250 50 0 empty empty empty 0 -10 0 12 #fcfcfc #000000 #000000;
#X obj 511 234 s drum_note;
#X connect 0 0 1 0;
#X connect 1 0 3 0;
#X connect 1 0 6 0;
#X connect 1 0 9 0;
#X connect 1 0 12 0;
#X connect 1 0 15 0;
#X connect 1 0 18 0;
#X connect 3 0 4 0;
#X connect 4 0 5 0;
#X connect 5 0 2 0;
#X connect 6 0 7 0;
#X connect 7 0 8 0;
#X connect 8 0 2 0;
#X connect 9 0 10 0;
#X connect 10 0 11 0;
#X connect 11 0 2 0;
#X connect 12 0 13 0;
#X connect 13 0 14 0;
#X connect 14 0 2 0;
#X connect 15 0 16 0;
#X connect 16 0 17 0;
#X connect 17 0 2 0;
#X connect 18 0 19 0;
#X restore 1431 447 pd readmore0;
#X obj 1431 519 send~ drums;
#X obj 1288 447 bng 19 250 50 0 empty empty empty 0 -10 0 12 #fcfcfc #000000 #000000;
#X obj 1288 519 s 16th_bang;
#X connect 0 0 113 0;
#X connect 0 0 115 0;
#X connect 1 0 2 0;
#X connect 2 0 3 0;
#X connect 3 0 0 0;
#X connect 4 0 5 0;
#X connect 5 0 6 0;
#X connect 6 0 7 0;
#X connect 7 0 3 0;
#X connect 8 0 9 0;
#X connect 9 0 10 0;
#X connect 10 0 0 0;
#X connect 11 0 12 0;
#X connect 12 0 13 0;
#X connect 13 0 14 0;
#X connect 14 0 10 0;
#X connect 15 0 16 0;
#X connect 16 0 17 0;
#X connect 17 0 0 0;
#X connect 18 0 19 0;
#X connect 19 0 20 0;
#X connect 20 0 21 0;
#X connect 21 0 17 0;
#X connect 22 0 23 0;
#X connect 23 0 24 0;
#X connect 24 0 0 0;
#X connect 25 0 26 0;
#X connect 26 0 27 0;
#X connect 27 0 28 0;
#X connect 28 0 24 0;
#X connect 29 0 30 0;
#X connect 30 0 31 0;
#X connect 31 0 0 0;
#X connect 32 0 33 0;
#X connect 33 0 34 0;
#X connect 34 0 35 0;
#X connect 35 0 31 0;
#X connect 36 0 37 0;
#X connect 37 0 38 0;
#X connect 38 0 0 0;
#X connect 39 0 40 0;
#X connect 40 0 41 0;
#X connect 41 0 42 0;
#X connect 42 0 38 0;
#X connect 43 0 44 0;
#X connect 44 0 45 0;
#X connect 45 0 0 0;
#X connect 46 0 47 0;
#X connect 47 0 48 0;
#X connect 48 0 49 0;
#X connect 49 0 45 0;
#X connect 50 0 51 0;
#X connect 51 0 52 0;
#X connect 52 0 0 0;
#X connect 53 0 54 0;
#X connect 54 0 55 0;
#X connect 55 0 56 0;
#X connect 56 0 52 0;
#X connect 57 0 58 0;
#X connect 58 0 59 0;
#X connect 59 0 0 0;
#X connect 60 0 61 0;
#X connect 61 0 62 0;
#X connect 62 0 63 0;
#X connect 63 0 59 0;
#X connect 64 0 65 0;
#X connect 65 0 66 0;
#X connect 66 0 0 0;
#X connect 67 0 68 0;
#X connect 68 0 69 0;
#X connect 69 0 70 0;
#X connect 70 0 66 0;
#X connect 71 0 72 0;
#X connect 72 0 73 0;
#X connect 73 0 0 0;
#X connect 74 0 75 0;
#X connect 75 0 76 0;
#X connect 76 0 77 0;
#X connect 77 0 73 0;
#X connect 78 0 79 0;
#X connect 79 0 80 0;
#X connect 80 0 0 0;
#X connect 81 0 82 0;
#X connect 82 0 83 0;
#X connect 83 0 84 0;
#X connect 84 0 80 0;
#X connect 85 0 86 0;
#X connect 86 0 87 0;
#X connect 87 0 0 0;
#X connect 88 0 89 0;
#X connect 89 0 90 0;
#X connect 90 0 91 0;
#X connect 91 0 87 0;
#X connect 92 0 93 0;
#X connect 93 0 94 0;
#X connect 94 0 0 0;
#X connect 95 0 96 0;
#X connect 96 0 97 0;
#X connect 97 0 98 0;
#X connect 98 0 94 0;
#X connect 99 0 100 0;
#X connect 100 0 101 0;
#X connect 101 0 0 0;
#X connect 102 0 103 0;
#X connect 103 0 104 0;
#X connect 104 0 105 0;
#X connect 105 0 101 0;
#X connect 106 0 107 0;
#X connect 107 0 108 0;
#X connect 108 0 0 0;
#X connect 109 0 110 0;
#X connect 110 0 111 0;
#X connect 111 0 112 0;
#X connect 112 0 108 0;
#X connect 113 0 114 0;
#X connect 115 0 116 0;
#X restore 760 223 pd gendrums0;
#N canvas 95 116 660 487 ambient0 0;
#X obj 192 18 inlet;
#X obj 160 90 bng 19 250 50 0 empty empty empty 0 -10 0 12 #fcfcfc #000000 #000000;
#X obj 383 301 bng 19 250 50 0 empty empty empty 0 -10 0 12 #fcfcfc #000000 #000000;
#N canvas 0 50 450 300 scales8 0;
#X floatatom 306 234 5 0 0 0 - - - 0;
#X floatatom 306 450 5 0 0 0 - - - 0;
#X obj 306 18 inlet;
#X obj 306 90 bng 19 250 50 0 empty empty empty 0 -10 0 12 #fcfcfc #000000 #000000;
#X obj 306 162 random 7;
#X obj 36 306 sel 0;
#X msg 36 378 65;
#X obj 126 306 sel 1;
#X msg 126 378 67;
#X obj 216 306 sel 2;
#X msg 216 378 69;
#X obj 306 306 sel 3;
#X msg 306 378 71;
#X obj 396 306 sel 4;
#X msg 396 378 72;
#X obj 486 306 sel 5;
#X msg 486 378 74;
#X obj 576 306 sel 6;
#X msg 576 378 76;
#X obj 306 522 mtof;
#X obj 306 594 outlet;
#X connect 0 0 5 0;
#X connect 0 0 7 0;
#X connect 0 0 9 0;
#X connect 0 0 11 0;
#X connect 0 0 13 0;
#X connect 0 0 15 0;
#X connect 0 0 17 0;
#X connect 1 0 19 0;
#X connect 2 0 3 0;
#X connect 3 0 4 0;
#X connect 4 0 0 0;
#X connect 5 0 6 0;
#X connect 6 0 1 0;
#X connect 7 0 8 0;
#X connect 8 0 1 0;
#X connect 9 0 10 0;
#X connect 10 0 1 0;
#X connect 11 0 12 0;
#X connect 12 0 1 0;
#X connect 13 0 14 0;
#X connect 14 0 1 0;
#X connect 15 0 16 0;
#X connect 16 0 1 0;
#X connect 17 0 18 0;
#X connect 18 0 1 0;
#X connect 19 0 20 0;
#X restore 138 162 pd scales8;
#X floatatom 127 242 5 0 0 0 - - - 0;
#X obj 36 300 / 2;
#X floatatom 36 378 5 0 0 0 - - - 0;
#X obj 36 450 phasor~;
#X obj 126 520 lop~ 100;
#X obj 126 450 phasor~;
#X obj 218 302 * 1.001;
#X floatatom 217 377 5 0 0 0 - - - 0;
#X obj 216 450 phasor~;
#X obj 203 594 *~;
#X obj 203 666 *~ 0.5;
#X obj 203 738 send~ pad;
#X msg 383 373 1 200;
#X obj 383 517 line;
#X obj 480 376 delay;
#X msg 480 448 0 500;
#X obj 480 160 r 2_mes_time;
#X floatatom 480 232 5 0 0 0 - - - 0;
#X obj 480 304 - 500;
#X obj 570 232 r ON;
#X obj 570 304 sel 0;
#X obj 570 376 delay 5;
#X connect 0 0 1 0;
#X connect 0 0 2 0;
#X connect 1 0 3 0;
#X connect 2 0 16 0;
#X connect 2 0 18 0;
#X connect 3 0 4 0;
#X connect 4 0 5 0;
#X connect 4 0 9 0;
#X connect 4 0 10 0;
#X connect 5 0 6 0;
#X connect 6 0 7 0;
#X connect 7 0 8 0;
#X connect 8 0 13 0;
#X connect 9 0 8 0;
#X connect 10 0 11 0;
#X connect 11 0 12 0;
#X connect 12 0 8 0;
#X connect 13 0 14 0;
#X connect 14 0 15 0;
#X connect 16 0 17 0;
#X connect 17 0 13 1;
#X connect 18 0 19 0;
#X connect 19 0 17 0;
#X connect 20 0 21 0;
#X connect 21 0 22 0;
#X connect 22 0 18 1;
#X connect 23 0 24 0;
#X connect 24 0 25 0;
#X connect 25 0 19 0;
#X restore 927 222 pd ambient0;
#N canvas 104 104 450 300 sampleread0 0;
#X obj 36 18 inlet;
#X obj 36 90 bng 19 250 50 0 empty empty empty 0 -10 0 12 #fcfcfc #000000 #000000;
#N canvas 0 50 450 300 read5 0;
#X obj 144 18 inlet;
#X msg 144 90 open ./samples/hihat_snake.wav \, 1;
#X obj 144 162 readsf~;
#X obj 144 234 outlet~;
#X connect 0 0 1 0;
#X connect 1 0 2 0;
#X connect 2 0 3 0;
#X restore 36 162 pd read5;
#X obj 36 234 send~ crash;
#X connect 0 0 1 0;
#X connect 1 0 2 0;
#X connect 2 0 3 0;
#X restore 376 226 pd sampleread0;
#X obj 591 415 key;
#X floatatom 591 487 5 0 0 0 - - - 0;
#X obj 591 559 sel 103;
#X obj 591 631 bng 24 250 50 0 empty empty empty 0 -10 0 12 #fcfcfc #000000 #000000;
#X obj 706 559 tgl 24 0 empty empty empty 0 -10 0 12 #fcfcfc #000000 #000000 0 1;
#X obj 706 414 loadbang;
#X obj 814 411 r ON;
#X msg 706 487 0;
#X obj 706 630 s glitch_onoff;
#N canvas 133 64 1094 589 glitchmix0 0;
#X obj 162 378 *~ 0.75;
#X obj 36 234 bng 19 250 50 0 empty empty empty 0 -10 0 12 #fcfcfc #000000 #000000;
#N canvas 0 50 450 300 read6 0;
#X obj 144 18 inlet;
#X msg 144 90 open ./samples/MA-Fizz-Cymbal.wav \, 1;
#X obj 144 162 readsf~;
#X obj 144 234 outlet~;
#X connect 0 0 1 0;
#X connect 1 0 2 0;
#X connect 2 0 3 0;
#X restore 36 306 pd read6;
#X obj 336 224 receive~ crash;
#X obj 297 448 *~ 0.25;
#X obj 517 522 *~ 1;
#N canvas 462 70 450 300 glitchonoff0 0;
#X obj 81 18 r glitch_onoff;
#X obj 81 90 tgl 19 0 empty empty empty 0 -10 0 12 #fcfcfc #000000 #000000 0 1;
#X obj 81 162 sel 1;
#X msg 36 234 0 50;
#X msg 126 234 1 50;
#X obj 81 306 line;
#X floatatom 81 378 5 0 0 0 - - - 0;
#X obj 81 450 outlet;
#X connect 0 0 1 0;
#X connect 1 0 2 0;
#X connect 2 0 3 0;
#X connect 2 1 4 0;
#X connect 3 0 5 0;
#X connect 4 0 5 0;
#X connect 5 0 6 0;
#X connect 6 0 7 0;
#X restore 364 378 pd glitchonoff0;
#X obj 491 452 *~ 1;
#X obj 297 521 delwrite~ glitch 500;
#X obj 817 234 r glitch_value;
#X floatatom 817 306 5 0 0 0 - - - 0;
#X obj 817 378 delread~ glitch 50;
#X obj 817 450 *~ 0.25;
#X obj 517 594 *~ 0.7;
#X obj 643 666 *~ 1;
#N canvas 52 52 450 300 glitchonoff1 0;
#X obj 81 18 r glitch_onoff;
#X obj 81 90 tgl 19 0 empty empty empty 0 -10 0 12 #fcfcfc #000000 #000000 0 1;
#X obj 81 162 sel 0;
#X msg 36 234 0 50;
#X msg 126 234 1 50;
#X obj 81 306 line;
#X floatatom 81 378 5 0 0 0 - - - 0;
#X obj 81 450 outlet;
#X connect 0 0 1 0;
#X connect 1 0 2 0;
#X connect 2 0 3 0;
#X connect 2 1 4 0;
#X connect 3 0 5 0;
#X connect 4 0 5 0;
#X connect 5 0 6 0;
#X connect 6 0 7 0;
#X restore 528 378 pd glitchonoff1;
#N canvas 78 78 450 300 glitchonoff2 0;
#X obj 81 18 r glitch_onoff;
#X obj 81 90 tgl 19 0 empty empty empty 0 -10 0 12 #fcfcfc #000000 #000000 0 1;
#X obj 81 162 sel 1;
#X msg 36 234 1 50;
#X msg 126 234 0 50;
#X obj 81 306 line;
#X floatatom 81 378 5 0 0 0 - - - 0;
#X obj 81 450 outlet;
#X connect 0 0 1 0;
#X connect 1 0 2 0;
#X connect 2 0 3 0;
#X connect 2 1 4 0;
#X connect 3 0 5 0;
#X connect 4 0 5 0;
#X connect 5 0 6 0;
#X connect 6 0 7 0;
#X restore 1039 378 pd glitchonoff2;
#X obj 1040 18 r glitch_onoff;
#X obj 1040 90 bng 19 250 50 0 empty empty empty 0 -10 0 12 #fcfcfc #000000 #000000;
#X obj 1040 162 random 100;
#X obj 1040 234 + 10;
#X obj 1040 306 s random_glitch;
#X obj 642 551 receive~ bass;
#X obj 820 551 receive~ pad;
#X obj 643 722 *~ 1;
#X obj 701 719 *~ 1;
#X obj 163 225 receive~ drums;
#X obj 163 306 *~ 1;
#X obj 252 255 inlet;
#X obj 335 304 *~ 1;
#X obj 426 256 inlet;
#X obj 643 616 *~ 1;
#X obj 723 581 inlet;
#X obj 819 609 *~ 1;
#X obj 890 580 inlet;
#X obj 642 790 dac~;
#X connect 0 0 4 0;
#X connect 1 0 2 0;
#X connect 2 0 0 0;
#X connect 3 0 29 0;
#X connect 4 0 5 0;
#X connect 4 0 8 0;
#X connect 5 0 13 0;
#X connect 6 0 4 1;
#X connect 7 0 8 0;
#X connect 9 0 10 0;
#X connect 10 0 11 0;
#X connect 11 0 12 0;
#X connect 11 0 7 0;
#X connect 12 0 5 0;
#X connect 13 0 14 0;
#X connect 14 0 24 0;
#X connect 14 0 25 0;
#X connect 15 0 7 1;
#X connect 16 0 12 1;
#X connect 17 0 18 0;
#X connect 18 0 19 0;
#X connect 19 0 20 0;
#X connect 20 0 21 0;
#X connect 20 0 10 0;
#X connect 22 0 31 0;
#X connect 23 0 33 0;
#X connect 24 0 35 0;
#X connect 25 0 35 1;
#X connect 26 0 27 0;
#X connect 27 0 0 0;
#X connect 28 0 27 1;
#X connect 29 0 0 0;
#X connect 30 0 29 1;
#X connect 31 0 14 0;
#X connect 32 0 31 1;
#X connect 33 0 14 0;
#X connect 34 0 33 1;
#X restore 933 629 pd glitchmix0;
#X obj 1158 29 r random_glitch;
#X obj 1158 227 vsl 19 162 0 127 0 0 empty empty empty 0 -9 0 12 #fcfcfc #000000 #000000 0 1;
#X obj 1158 425 s glitch_value;
#N canvas 0 0 1366 725 gem 0;
#X obj -186 -440 declare -lib Gem;
#X obj -189 -282 gemwin;
#X msg -119 -339 0 \, destroy;
#X msg -95 -309 dimen 640 480;
#X obj 466 -465 r 16th_bang;
#X obj 466 -441 bng 19 250 50 0 empty empty empty 0 -10 0 12 #fcfcfc #000000 #000000;
#X obj 432 -404 bng 19 250 50 0 empty empty empty 0 -10 0 12 #fcfcfc #000000 #000000;
#X obj 668 -409 bng 19 250 50 0 empty empty empty 0 -10 0 12 #fcfcfc #000000 #000000;
#X obj 559 -407 bng 19 250 50 0 empty empty empty 0 -10 0 12 #fcfcfc #000000 #000000;
#X obj 432 -380 random 10;
#X obj 432 -349 + 1;
#X floatatom 432 -315 5 0 0 0 - - - 0;
#X obj 432 -283 / 1;
#X obj 432 -251 * 0.1;
#X floatatom 432 -219 5 0 0 0 - - - 0;
#X obj 331 -164 colorRGB;
#X obj 331 -261 gemhead;
#X obj 558 -376 random 10;
#X obj 558 -345 + 1;
#X floatatom 558 -311 5 0 0 0 - - - 0;
#X obj 558 -279 / 1;
#X obj 558 -247 * 0.1;
#X floatatom 558 -215 5 0 0 0 - - - 0;
#X obj 665 -379 random 10;
#X obj 665 -348 + 1;
#X floatatom 665 -314 5 0 0 0 - - - 0;
#X obj 665 -282 / 1;
#X obj 665 -250 * 0.1;
#X floatatom 665 -218 5 0 0 0 - - - 0;
#X obj 327 268 scaleXYZ;
#X obj 401 -6 bng 19 250 50 0 empty empty empty 0 -10 0 12 #fcfcfc #000000 #000000;
#X msg 401 63 0.5 10;
#X obj 400 108 line;
#X floatatom 400 148 5 0 0 0 - - - 0;
#X obj 486 20 delay 10;
#X msg 486 57 2.5 200;
#X floatatom 401 -92 5 0 0 0 - - - 0;
#X obj 401 -58 sel 0;
#X obj 465 -58 sel 2;
#X obj 328 409 rotateXYZ;
#X obj 710 -26 tgl 19 0 empty empty empty 0 -10 0 12 #fcfcfc #000000 #000000 0 1;
#X obj 710 -2 metro 50;
#X obj 580 138 snapshot~;
#X obj 730 141 snapshot~;
#X obj 581 73 osc~ 0.25;
#X obj 731 74 osc~ 0.24;
#X obj 901 138 snapshot~;
#X obj 902 71 osc~ 0.23;
#X obj 580 177 * 360;
#X obj 730 180 * 360;
#X obj 901 177 * 360;
#X floatatom 580 215 5 0 0 0 - - - 0;
#X floatatom 730 218 5 0 0 0 - - - 0;
#X floatatom 901 215 5 0 0 0 - - - 0;
#X obj 326 542 sphere;
#X obj 214 368 loadbang;
#X msg 213 409 draw line;
#X obj 710 -58 r ON;
#X obj 864 -464 r glitch_onoff;
#X obj 864 -431 tgl 19 0 empty empty empty 0 -10 0 12 #fcfcfc #000000 #000000 0 1;
#X msg 846 -335 0 50;
#X obj 845 -283 line;
#X floatatom 845 -251 5 0 0 0 - - - 0;
#X msg 913 -335 1 50;
#X obj 864 -374 sel 0;
#X obj 983 -370 r glitch_value;
#X floatatom 983 -336 5 0 0 0 - - - 0;
#X obj 844 -170 *;
#X floatatom 844 -129 5 0 0 0 - - - 0;
#X obj 983 -246 t b f;
#X obj 983 -297 / 100;
#X obj 104 540 cube;
#X obj 106 482 rotateXYZ;
#X obj -79 -39 tgl 19 0 empty empty empty 0 -10 0 12 #fcfcfc #000000 #000000 0 1;
#X obj -79 -15 metro 50;
#X obj -202 179 snapshot~;
#X obj -52 182 snapshot~;
#X obj 66 183 snapshot~;
#X obj -202 221 * 360;
#X obj -52 224 * 360;
#X obj 66 225 * 360;
#X floatatom -202 256 5 0 0 0 - - - 0;
#X floatatom -52 259 5 0 0 0 - - - 0;
#X floatatom 66 260 5 0 0 0 - - - 0;
#X obj -79 -74 r ON;
#X obj -201 74 osc~ 2.25;
#X obj -51 72 osc~ 2.24;
#X obj 67 73 osc~ 2.23;
#X obj 401 -121 r drum_note;
#X obj -188 -383 inlet;
#X connect 2 0 1 0;
#X connect 3 0 1 0;
#X connect 4 0 5 0;
#X connect 5 0 6 0;
#X connect 5 0 7 0;
#X connect 5 0 8 0;
#X connect 6 0 9 0;
#X connect 7 0 23 0;
#X connect 8 0 17 0;
#X connect 9 0 10 0;
#X connect 10 0 11 0;
#X connect 11 0 12 0;
#X connect 12 0 13 0;
#X connect 13 0 14 0;
#X connect 14 0 15 1;
#X connect 15 0 29 0;
#X connect 16 0 15 0;
#X connect 17 0 18 0;
#X connect 18 0 19 0;
#X connect 19 0 20 0;
#X connect 20 0 21 0;
#X connect 21 0 22 0;
#X connect 22 0 15 2;
#X connect 23 0 24 0;
#X connect 24 0 25 0;
#X connect 25 0 26 0;
#X connect 26 0 27 0;
#X connect 27 0 28 0;
#X connect 28 0 15 3;
#X connect 29 0 39 0;
#X connect 29 0 72 0;
#X connect 30 0 31 0;
#X connect 30 0 34 0;
#X connect 31 0 32 0;
#X connect 32 0 33 0;
#X connect 33 0 29 1;
#X connect 33 0 29 2;
#X connect 33 0 29 3;
#X connect 34 0 35 0;
#X connect 35 0 32 0;
#X connect 36 0 37 0;
#X connect 36 0 38 0;
#X connect 37 0 30 0;
#X connect 38 0 30 0;
#X connect 39 0 54 0;
#X connect 40 0 41 0;
#X connect 41 0 42 0;
#X connect 41 0 43 0;
#X connect 41 0 46 0;
#X connect 42 0 48 0;
#X connect 43 0 49 0;
#X connect 44 0 42 0;
#X connect 45 0 43 0;
#X connect 46 0 50 0;
#X connect 47 0 46 0;
#X connect 48 0 51 0;
#X connect 49 0 52 0;
#X connect 50 0 53 0;
#X connect 51 0 39 1;
#X connect 52 0 39 2;
#X connect 53 0 39 3;
#X connect 55 0 56 0;
#X connect 56 0 54 0;
#X connect 56 0 71 0;
#X connect 57 0 40 0;
#X connect 58 0 59 0;
#X connect 59 0 64 0;
#X connect 60 0 61 0;
#X connect 61 0 62 0;
#X connect 62 0 67 0;
#X connect 63 0 61 0;
#X connect 64 0 60 0;
#X connect 64 1 63 0;
#X connect 65 0 66 0;
#X connect 66 0 70 0;
#X connect 67 0 68 0;
#X connect 68 0 45 0;
#X connect 68 0 44 0;
#X connect 69 0 67 0;
#X connect 69 1 67 1;
#X connect 70 0 69 0;
#X connect 72 0 71 0;
#X connect 73 0 74 0;
#X connect 74 0 75 0;
#X connect 74 0 76 0;
#X connect 74 0 77 0;
#X connect 75 0 78 0;
#X connect 76 0 79 0;
#X connect 77 0 80 0;
#X connect 78 0 81 0;
#X connect 79 0 82 0;
#X connect 80 0 83 0;
#X connect 81 0 72 1;
#X connect 82 0 72 2;
#X connect 83 0 72 3;
#X connect 84 0 73 0;
#X connect 85 0 75 0;
#X connect 86 0 76 0;
#X connect 87 0 77 0;
#X connect 88 0 36 0;
#X connect 89 0 1 0;
#X restore 199 157 pd gem;
#X obj 934 439 tgl 24 0 empty empty empty 0 -12 0 16 #fcfcfc #000000 #000000 0 1;
#X text 933 410 drums;
#X obj 975 500 tgl 24 0 empty empty empty 0 -12 0 16 #fcfcfc #000000 #000000 0 1;
#X text 971 470 crash;
#X obj 1017 561 tgl 24 0 empty empty empty 0 -12 0 16 #fcfcfc #000000 #000000 0 1;
#X obj 1060 589 tgl 24 0 empty empty empty 0 -12 0 16 #fcfcfc #000000 #000000 0 1;
#X text 1013 529 bass;
#X text 1067 560 pad;
#X msg 199 107 create \, 1;
#X msg 211 537 160;
#X connect 2 0 3 0;
#X connect 4 0 38 0;
#X connect 7 0 14 0;
#X connect 8 0 11 0;
#X connect 8 1 11 1;
#X connect 8 2 11 2;
#X connect 8 3 11 3;
#X connect 8 4 11 4;
#X connect 8 5 11 5;
#X connect 8 6 11 6;
#X connect 8 7 11 7;
#X connect 9 0 12 0;
#X connect 9 1 12 1;
#X connect 9 2 12 2;
#X connect 9 3 12 3;
#X connect 9 4 12 4;
#X connect 9 5 12 5;
#X connect 9 6 12 6;
#X connect 9 7 12 7;
#X connect 9 8 12 8;
#X connect 9 9 12 9;
#X connect 9 10 12 10;
#X connect 9 11 12 11;
#X connect 9 12 12 12;
#X connect 9 13 12 13;
#X connect 9 14 12 14;
#X connect 9 15 12 15;
#X connect 10 0 13 0;
#X connect 15 0 16 0;
#X connect 16 0 17 0;
#X connect 17 0 18 0;
#X connect 18 0 19 0;
#X connect 19 0 23 0;
#X connect 20 0 22 0;
#X connect 21 0 22 0;
#X connect 22 0 19 0;
#X connect 25 0 26 0;
#X connect 26 0 27 0;
#X connect 29 0 24 0;
#X connect 31 0 24 1;
#X connect 33 0 24 2;
#X connect 34 0 24 3;
#X connect 37 0 28 0;
#X connect 38 0 5 0;
