#N canvas 200 200 1000 400 16;
#X obj 98 198 bng 24 250 50 0 empty empty empty 0 -10 0 12 #fcfcfc #000000 #000000;
#X text 95 102 Una patch di Pure Data è formata da:;
#X text 95 125 - nodi;
#X text 95 148 - connessioni;
#X text 95 13 -------------------------PURE DATA-------------------------, f 68;
#X msg 365 198 \; pd dsp 1;
#X listbox 98 296 20 0 0 0 - - - 0;
#X msg 98 249 set hello world!;
#X obj 605 104 bng 24 250 50 0 empty empty empty 0 -12 0 16 #fcfcfc #000000 #000000;
#X msg 366 278 \; pd dsp 0;
#X msg 605 141 440;
#X floatatom 605 180 5 0 0 0 - - - 0;
#X obj 605 220 osc~;
#X text 95 48 Pure Data (Pd) è un ambiente di programmazione visuale real-time per l'elaborazione audio \, video e grafica.;
#X obj 605 266 output~;
#X connect 0 0 7 0;
#X connect 7 0 6 0;
#X connect 8 0 10 0;
#X connect 10 0 11 0;
#X connect 11 0 12 0;
#X connect 12 0 14 0;
#X connect 12 0 14 1;
