#N canvas 0 0 1366 725 16;
#X text 404 63 PROGETTAZIONE E SVILUPPO DI UN DSL E RELATIVO TRANSPILATORE PER AMBIENTI DI PROGRAMMAZIONE MUSICALE VISUALI;
#X obj 96 220 PureData;
#X obj 197 220 Max;
#X msg 113 358 Difficoltà nella creazione di patch;
#X msg 13 187 Visual Programming Languages;
#X obj 112 406 grafica;
#X obj 112 437 logica;
#X text 206 404 - difficoltà di natura grafica;
#X text 206 437 - difficoltà di natura logica;
#X msg 455 172 Soluzione: la realizzazione del DSL;
#X obj 531 207 decisione;
#X obj 686 208 analisi;
#X obj 531 235 design;
#X obj 608 236 implementazione;
#X msg 609 525 Tecnologie utilizzate;
#X obj 612 557 ANTLR;
#X obj 612 591 Python;
#X obj 900 354 input_1;
#X obj 994 354 output_1;
#X obj 900 317 input_0;
#X obj 994 317 output_0;
#X obj 900 391 input_2;
#X obj 994 391 output_2;
#X obj 900 428 input_3;
#X obj 994 428 output_3;
#X text 1102 316 - sintesi additiva;
#X text 1102 353 - generazione melodia;
#X text 1101 390 - step sequencer;
#X text 1101 427 - breakbeat;
#X msg 855 272 Alcuni esempi di input e relative patch output;
#X connect 3 0 9 0;
#X connect 4 0 3 0;
#X connect 9 0 14 0;
#X connect 14 0 29 0;
